<svg xmlns="http://www.w3.org/2000/svg" viewBox="0 0 391.03 390.57"><defs><style>.cls-1{fill:none;}.cls-2{fill:#07b1a9;}</style></defs><g id="Layer_2" data-name="Layer 2"><g id="Layer_1-2" data-name="Layer 1"><path class="cls-1" d="M44.79,72.17h.3C60.17,72.17,73.5,59,73.7,43.73c.09-6.6-3.14-13.85-8.65-19.4-5.19-5.23-11.64-8.19-17.59-8.19-14,.08-28.58,15.83-28.92,31.22a22.87,22.87,0,0,0,6.84,16.31A27.64,27.64,0,0,0,44.79,72.17Z"/><path class="cls-1" d="M221.5,170.09c1.28,1.26,3.17,1.84,6.11,1.84H228c14.37-.22,29-.17,43.14-.13l14.59,0h17.4c13.23,0,26.91,0,40.37,0a32.78,32.78,0,0,0,23.29-9.87,25.72,25.72,0,0,0,7.67-18.52,29.26,29.26,0,0,0-9.19-21,28.48,28.48,0,0,0-21.1-7.28c-10.21.55-20.66.39-30.77.24-3.88-.05-7.76-.11-11.64-.13-18.73-.09-25.71-7-25.73-25.5,0-7.18,0-14.37,0-21.55q0-10.48,0-21c0-4.78-.18-9.45-2.23-14a28.78,28.78,0,0,0-31.78-17C229.43,18.41,219.86,31,219.78,45.56c-.11,20.18-.11,40.69-.1,60.53,0,18.81,0,38.26-.09,57.4C219.58,165.81,219.8,168.41,221.5,170.09Z"/><path class="cls-1" d="M37.42,169.58A49.74,49.74,0,0,0,51.3,171.5q23.92.09,47.86.06c21.11,0,43,0,64.42.15h.17c3.17,0,5.2-.6,6.54-2,1.72-1.74,1.92-4.4,1.89-7C172,148.51,172,134,172,120l0-15.81q0-8.92,0-17.87c0-13.6,0-27.66,0-41.49C172,29.27,159,16.13,143.63,16.13h0c-15.34,0-27.46,12.47-27.6,28.32-.09,10.76-.07,21.69,0,32.26q0,6.74,0,13.47c0,17.15-8.09,25.22-25.47,25.4-8.87.1-17.9.09-26.63.08q-9.14,0-18.27,0c-12.67,0-24.9,8.86-26.19,18.85C16.92,153.75,22.82,165.22,37.42,169.58Z"/><path class="cls-1" d="M344.71,218.55c-13.59-.17-27.41-.13-40.77-.09l-17.82,0-15.84,0c-14,0-28.48.05-42.71-.12-3,0-5.21.26-6.79,1.83-1.31,1.3-1.88,3.24-1.87,6.28.15,22.21.16,44.8.18,66.65q0,24.44.08,48.88c0,6.19.38,12.72,4.27,18.58,5.84,8.76,15.39,13.94,24.81,13.94a24.77,24.77,0,0,0,6.73-.92c12.67-3.6,21-14.74,21.22-28.38.15-9.28.13-18.71.1-27.83,0-6.51,0-13,0-19.52.05-7.69,2.18-13.6,6.33-17.58S293,274.39,301,274.67c12.35.46,25.88.64,42.54.61,6.19,0,12.7-.58,18.46-4.62,10.21-7.15,14.86-19.41,11.57-30.49C369.59,226.81,358.81,218.73,344.71,218.55Z"/><path class="cls-1" d="M170.37,220.34c-1.78-1.8-4.53-2-7.29-2-25.05.19-50.53.17-75.17.16q-19.36,0-38.74,0c-20.57,0-31,10.37-31,30.72,0,14.14,9.6,24.43,23.94,25.6,13,1.06,26.1.74,38.81.43,3.11-.07,6.23-.15,9.34-.2,15.14-.26,22,5.2,24.41,19.54,1.86,11,1.59,22.4,1.33,33.4-.13,5.5-.26,11.19-.13,16.79.36,15.53,12.47,29.13,25.93,29.13h0c17.75,0,30.19-12.09,30.27-29.32q.08-20.13,0-40.27,0-7.94,0-15.89h.08v-1.61q0-8.24,0-16.48c0-14-.09-28.57.18-42.85C172.37,223.91,171.79,221.77,170.37,220.34Z"/><path class="cls-2" d="M187.36,203.2c-.67-.66-2-.95-4.29-.92-17,.2-34.32.17-51,.14H44.21a44,44,0,0,0-32,13.26A44.8,44.8,0,0,0,0,248.74c.92,25.77,19.64,43.2,46.59,43.39,13.27.09,27.69-.05,44.07-.42h.48c5.37,0,7.64,2.19,8.06,7.68.79,10.27.68,20.68.58,30.75-.07,6-.13,12.16,0,18.22.09,4.58.42,8.39,1.73,12.11,7.73,22.07,31.93,32.63,49.66,28.67,20.85-4.67,36.68-21.4,36.82-38.92.23-28.08.23-56.63.22-84.24,0-19.21,0-39.07.07-58.61C188.31,205.17,188,203.85,187.36,203.2Zm-15.24,67.13q0,8.25,0,16.48v1.61h-.08q0,7.95,0,15.89,0,20.15,0,40.27c-.08,17.23-12.52,29.29-30.27,29.32h0c-13.46,0-25.57-13.6-25.93-29.13-.13-5.6,0-11.29.13-16.79.26-11,.53-22.37-1.33-33.4-2.41-14.34-9.27-19.8-24.41-19.54-3.11,0-6.23.13-9.34.2-12.71.31-25.84.63-38.81-.43-14.34-1.17-24-11.46-23.94-25.6,0-20.35,10.47-30.69,31-30.72q19.38,0,38.74,0c24.64,0,50.12,0,75.17-.16,2.76,0,5.51.21,7.29,2,1.42,1.43,2,3.57,1.93,7.14C172,241.76,172.08,256.29,172.12,270.33Z"/><path class="cls-2" d="M390.14,238.92c-4.67-21.77-22.66-36.43-44.79-36.47q-24.23,0-48.44,0H278q-9.33,0-18.65,0c-16.25,0-33.06.1-49.59-.19h-.55c-2.69,0-4.28.38-5.13,1.21s-1.29,2.62-1.27,5.6c.19,28.17.17,56.81.16,84.5q0,21.56,0,43.1a103.73,103.73,0,0,0,.84,15c3.81,25.35,23.14,40.58,49.33,38.76,21.42-1.47,39-21.72,39.26-45.13.15-15.83.15-31.2,0-45.7,0-2.38.19-5,1.94-6.75,1.37-1.33,3.44-1.9,6.54-1.79,13.9.5,28.56.64,44.82.42,5.16-.07,11.88-.5,18.11-3.32C383.27,279.34,394.37,258.64,390.14,238.92ZM362,270.66c-5.76,4-12.27,4.61-18.46,4.62-16.66,0-30.19-.15-42.54-.61-7.94-.28-14.1,1.6-18.33,5.65s-6.28,9.89-6.33,17.58c-.05,6.51,0,13,0,19.52,0,9.12.05,18.55-.1,27.83C276,358.89,267.65,370,255,373.63a24.77,24.77,0,0,1-6.73.92c-9.42,0-19-5.18-24.81-13.94-3.89-5.86-4.25-12.39-4.27-18.58q-.09-24.43-.08-48.88c0-21.85,0-44.44-.18-66.65,0-3,.56-5,1.87-6.28,1.58-1.57,3.83-1.87,6.79-1.83,14.23.17,28.71.14,42.71.12l15.84,0,17.82,0c13.36,0,27.18-.08,40.77.09,14.1.18,24.88,8.26,28.84,21.62C376.84,251.25,372.19,263.51,362,270.66Z"/><path class="cls-2" d="M45.44,187.89c22.22.07,44.83,0,66.68,0,22.85,0,46.48-.11,69.71,0h.09c2.63,0,4.25-.41,5.11-1.28s1.26-2.59,1.22-5.51c-.22-16.57-.18-33.41-.14-49.7q0-9.26,0-18.53,0-10.36,0-20.74,0-23.32,0-46.65C188,20.49,168.29.15,144.11.08H144c-25,0-43.91,19.21-44.09,44.73l-.06,7c-.1,12.15-.2,24.71.17,37,.12,4-.64,6.69-2.39,8.42S93.18,99.78,89,99.63l-4.91-.19c-9.39-.36-19-.73-28.59-.73-4.29,0-8.56.07-12.81.26C18,100-.22,119.38.26,144,.72,167.72,21.41,187.83,45.44,187.89Zm-26-53.36c1.29-10,13.52-18.8,26.19-18.85q9.14,0,18.27,0c8.73,0,17.76,0,26.63-.08,17.38-.18,25.47-8.25,25.47-25.4q0-6.74,0-13.47c0-10.57,0-21.5,0-32.26.14-15.85,12.26-28.29,27.6-28.32h0C159,16.13,172,29.27,172,44.85c.08,13.83.06,27.89,0,41.49q0,8.94,0,17.87L172,120c0,14-.07,28.49.14,42.72,0,2.62-.17,5.28-1.89,7-1.34,1.35-3.37,2-6.54,2h-.17c-21.47-.14-43.31-.14-64.42-.15q-23.93,0-47.86-.06a49.74,49.74,0,0,1-13.88-1.92C22.82,165.22,16.92,153.75,19.39,134.53Z"/><path class="cls-2" d="M203.48,108.55v69c0,5.16,0,8.28,1.06,9.32s4.3,1,9.64,1q19.48,0,39,0h25.61c19.85,0,40,0,59.84.07a75.48,75.48,0,0,0,17.12-1.74c21.53-4.74,36.79-25.57,34.74-47.44a43.67,43.67,0,0,0-43-39.56c-13.76-.19-29.77-.37-45.69,0-3.62.08-5.93-.55-7.48-2.06-2-2-2.27-5.06-2.27-7.84,0-5,.14-10.15.26-15.1.33-12.62.67-25.67-1.2-38.36C287.79,13.74,268.68-.67,243.56.09c-19.39.56-37.77,18.66-39.32,38.74-1.18,15.27-1,30.29-.77,44.81C203.59,92.49,203.7,100.85,203.48,108.55Zm16.2-2.46c0-19.84,0-40.35.1-60.53C219.86,31,229.43,18.41,242,16.27a28.78,28.78,0,0,1,31.78,17c2.05,4.55,2.23,9.22,2.23,14q0,10.49,0,21c0,7.18,0,14.37,0,21.55,0,18.5,7,25.41,25.73,25.5,3.88,0,7.76.08,11.64.13,10.11.15,20.56.31,30.77-.24a28.48,28.48,0,0,1,21.1,7.28,29.26,29.26,0,0,1,9.19,21,25.72,25.72,0,0,1-7.67,18.52,32.78,32.78,0,0,1-23.29,9.87c-13.46.07-27.14.06-40.37,0H285.7l-14.59,0c-14.14,0-28.77-.09-43.14.13h-.36c-2.94,0-4.83-.58-6.11-1.84-1.7-1.68-1.92-4.28-1.91-6.6C219.68,144.35,219.68,124.9,219.68,106.09Z"/><path class="cls-2" d="M45,88.28h.08A45.2,45.2,0,0,0,76.94,74.75,43.49,43.49,0,0,0,89.88,43.49C89.58,20.7,69.73,0,48.19,0h-.11C23.77.08,2.41,22.66,2.35,48.33,2.31,69.94,21.83,88.24,45,88.28Zm2.48-72.14c5.95,0,12.4,3,17.59,8.19,5.51,5.55,8.74,12.8,8.65,19.4C73.5,59,60.17,72.17,45.09,72.17h-.3a27.64,27.64,0,0,1-19.41-8.5,22.87,22.87,0,0,1-6.84-16.31C18.88,32,33.48,16.22,47.46,16.14Z"/></g></g></svg>