<svg xmlns="http://www.w3.org/2000/svg" viewBox="0 0 320.92 380.86"><defs><style>.cls-1{fill:#07b1a9;}</style></defs><g id="Layer_2" data-name="Layer 2"><g id="Layer_1-2" data-name="Layer 1"><path class="cls-1" d="M309.26,0h-.76c-5.55,1.37-9.39,4.86-11.71,10.69a214.23,214.23,0,0,1-10.21,20.92l-2,3.7c-18.09,34.12-39.69,61.33-66,83.2a192.18,192.18,0,0,1-38,24.62l-3.21,1.59,2.75-4.32c.34-.54.54-.86.75-1.16,6.59-10,9.26-18.62,8.42-27.29-1.12-11.47-6.77-21.58-16.8-30a87,87,0,0,0-36.6-18.44c-7.44-1.74-12.46.41-15.82,6.75-6.3,11.91-10.25,22.19-12.44,32.33-3.16,14.69-1.58,26,5,35.71,7.72,11.39,19.93,14.81,32,16.82l4.3.71L144.71,157c-15.53,4.58-32.11,7.14-52.18,8.08-23,1.07-47.5-.84-75.07-5.86C6.21,157.2,3.72,158.48,0,168.38V171c1.46,6.19,6.25,9.09,11.32,12.15.87.53,1.74,1.06,2.6,1.6a201.93,201.93,0,0,0,31.52,16l.49.2c1.28.52,2.49,1,3,2.22.38.94.22,2.08-.53,3.68-2.24,4.85-1.28,9.49,2.84,13.81,3.21,3.36,6.79,6.45,10.26,9.43,1.58,1.36,3.16,2.73,4.71,4.12l.18.15c1.27,1.14,3,2.7.91,5.45-2,2.56-2.36,5.73-1.26,10.27,6.28,26.11,13.64,45.13,23.86,61.66a117.35,117.35,0,0,0,15.65,19.79l1.82,1.91-2.63-.22a162.59,162.59,0,0,1-33.5-6c-5.53-1.64-9.61-.86-12.85,2.46-3.41,3.49-4.18,8-2.18,12.69a28.84,28.84,0,0,0,5,7l.72.83C76.24,367,95,376.74,119.21,380.05a10.13,10.13,0,0,1,2.05.57c.23.09.45.17.68.24h21c2.65-.65,5.36-1.24,8-1.81,6.79-1.48,13.81-3,20.34-5.79,17.33-7.41,29.59-18.14,37.47-32.8,2.69-5,3-10.3,1-14.19-1.79-3.34-5.23-5.33-9.93-5.77a5.91,5.91,0,0,1-1.6-.47c-.33-.13-.71-.28-1.21-.45l-2.63-.9,2.61-1a116.59,116.59,0,0,0,24.12-12c12.24-8.15,22.69-19.24,32.87-34.91a10.69,10.69,0,0,0-.37-12.54c-2.82-3.85-6.93-5.37-12.22-4.53a17.86,17.86,0,0,1-6.91,0l-2.35-.51,2-1.31,3-1.9c2.09-1.33,4.25-2.7,6.31-4.13C264.77,231,278.12,209.81,284.2,181l.24-1.12c.6-2.73,1.16-5.31.55-7.93-1.53-6.58-6.44-9-15.91-7.9l-2.58.3,1.71-2a237.5,237.5,0,0,0,21.47-27.87,182.65,182.65,0,0,0,22.49-51.88,229.51,229.51,0,0,0,8-50,21.46,21.46,0,0,1,.49-3.35c.09-.46.18-.92.26-1.38V10.71C319.52,4.63,315.71,1.12,309.26,0Zm-170,140.58c-16.11-4.22-22.34-15.25-19.05-33.73,1.73-9.68,5.69-18.58,9.72-26.76,1.39-2.8,3-4.27,6.73-2.94,13.34,4.75,28.17,11.67,36.95,27,4.86,8.47,1.8,19.8-3.39,27.28-4.75,6.85-11.22,10.85-17.33,10.85a13.42,13.42,0,0,1-2.1-.17A37.66,37.66,0,0,1,139.21,140.58ZM306.88,26.32a202.64,202.64,0,0,1-2.35,28.9c-3.15,21-8.86,39.59-17.45,56.94a160,160,0,0,1-68.6,71.06,49.12,49.12,0,0,1-6.28,2.72c-2.8,1-2.66,2.78-2.31,4,.43,1.51.93,1.54,3.1,1,.26-.07.53-.13.8-.18l5.19-1.06c16.48-3.36,33.53-6.83,50.45-11.69l1.43-.41-.16,1.47c-.72,6.75-2.76,12.6-5.62,19.32-11.76,27.69-34,45.12-66.09,51.81a123.34,123.34,0,0,1-40.14,2.12l-.5-.07c-1.12-.14-2.38-.31-3,.19a2.1,2.1,0,0,0-.59,1.5c-.17,1.86.75,2.48,3.39,3.3,15.91,4.89,33.15,9.62,51.38,11a131.81,131.81,0,0,0,27.93-.73l1.86-.25-.83,1.68c-2.68,5.43-6.37,9.25-9.95,12.94l-.56.57c-17.08,17.67-37.81,26.62-61.63,26.62h-1.1a93.53,93.53,0,0,1-37.72-8.36,15.71,15.71,0,0,1-1.62-.9c-2.45-1.46-3.63-1.92-4.7-.19s-.14,2.73,2.37,4.39c.45.29.88.58,1.27.88a144.16,144.16,0,0,0,67.22,27.61c1.61.23,3.11.53,3.64,1.71s-.21,2.56-1.09,3.9c-9.72,14.81-24.56,23.92-45.34,27.86a94.8,94.8,0,0,1-17.64,1.7,84.65,84.65,0,0,1-32.1-6.25c-10-4-20.14-11.31-25.34-18.08l-1.74-2.26,2.77.68c18.27,4.51,36.87,6.15,58.56,5.17,4.07-.18,8.22-.66,12.23-1.13,2.14-.25,4.29-.5,6.44-.71,1.82-.17,2.16-.79,2.17-1.94s-.29-1.78-2.09-2.07c-34.24-5.61-50.06-31-61-55.17a200.8,200.8,0,0,1-8.14-22.48c-1.12-3.55-2.29-7.22-3.56-10.91l-.86-2.5,2.3,1.3c2.66,1.51,5.23,3,7.74,4.43,5.46,3.15,10.62,6.12,15.89,8.88a176.66,176.66,0,0,0,34,13.78c.35.1.71.23,1.08.36.81.3,1.74.64,2.22.4a1.88,1.88,0,0,0,.7-1.11c.51-1.65-.2-2.68-2.73-3.93-12.24-6.07-23.28-14.29-33.4-22.28-13.53-10.67-26.27-22.46-38.58-33.85l-2.73-2.52,3.62.81,8.32,1.87c5.53,1.25,10.76,2.43,16,3.54,33.54,7.14,63.18,8.21,90.61,3.3a167.94,167.94,0,0,0,27.11-7.33c3.07-1.1,3.82-1.93,3.34-3.71a1.92,1.92,0,0,0-.68-1.2c-.51-.29-1.51,0-2.47.28-.39.12-.78.23-1.16.32-22.71,5.19-46.87,5.32-76,.39-31.34-5.29-62.91-15.64-99.35-32.56l-1.11-.5c-2.58-1.17-5.26-2.37-7.28-4.86l-1.65-2,2.58.41c126.19,20,219.63-30,277.72-148.43l1.93-3.94Z"/></g></g></svg>