<svg xmlns="http://www.w3.org/2000/svg" viewBox="0 0 379.95 393.4"><defs><style>.cls-1{fill:#07b1a9;}</style></defs><g id="Layer_2" data-name="Layer 2"><g id="Layer_1-2" data-name="Layer 1"><path class="cls-1" d="M377.52,274.17c.07-.37.13-.75.19-1.13.34-2.1.71-4.47,2.24-6.43V240.18c-1.1-2.47-2-5-2.84-7.51-1.69-4.88-3.44-9.92-6.8-14.21-9.47-12.1-22.14-21.08-41.1-29.13-15.52-6.59-32-10.79-47.52-14.33-1.07-.25-2.09-.54-3.28-.88l-1.85-.52-1.51-.42,1-1.19c12.08-14.24,20.89-26.5,27.7-38.57,10.72-19,21.36-41.91,19-68S308.22,20,286.56,7.79c-11.47-6.46-24.08-5.63-37.46,2.47-14.9,9-24.69,22.76-34.22,37.24-1.2,1.82-2.35,3.66-3.67,5.79l-2.12,3.39-1.33,2.11-.5-2.45c-.23-1.12-.42-2.13-.59-3.08-.34-1.8-.62-3.35-1-4.84C197.88,20.55,181.51,4.9,155.6.56a1.87,1.87,0,0,1-1-.56H143.13c-1.81.54-3.65,1-5.43,1.41a58.12,58.12,0,0,0-9.48,2.88C113.28,10.8,102,23.19,96.39,39.19a66.91,66.91,0,0,0,4.16,53.25c4.71,8.87,11.61,16.34,21.12,22.83a4.14,4.14,0,0,0,.56.28,3.19,3.19,0,0,1,2.27,3.11l0,1.14-1.14-.13A332.44,332.44,0,0,0,74.91,118c-18.57.54-33.15,3.27-45.88,8.6C13.77,133,4.55,142.64.84,156.15a2.83,2.83,0,0,1-.81,1.2l0,0v14.46c4.67,15.32,15.53,26.84,33.18,35.2C49.3,214.67,66.91,220.2,87,224c7.43,1.39,14.82,2.54,22.65,3.76q5.37.82,10.94,1.72l1.74.28-1.14,1.36-2.87,3.39c-5.25,6.18-10.21,12-14.65,18.25C89.39,272.79,75,294.62,70.34,321.19c-4.4,25,1.79,44.9,18.93,60.92,12.76,11.91,30,14.58,46.11,7.13,18.76-8.68,32.2-23.41,42.88-36.69,16.1-20,30.35-43.83,43.55-72.83.86-1.88,1.92-4.21,5.63-2.7,23.08,9.36,47.93,15.83,69.85,21.55,14.4,3.75,28.57,7,43.46,6C360.35,303.16,374.44,291.52,377.52,274.17ZM112.66,87c-4.64-8.33-6.88-17.63-6.83-28.44v0a47.49,47.49,0,0,1,19.88-37.78c17.51-12.77,43.05-8.55,56.92,9.4,15.81,20.45,15.34,47.17-1.16,66.5a40,40,0,0,1-30.53,13.76q-2.08,0-4.2-.21C132.52,108.83,120.1,100.37,112.66,87Zm70.86,27.1-.92,2.52c-.49,1.36-1,2.72-1.49,4.08-1.23,3.35-2.51,6.81-3.7,10.23a3.6,3.6,0,0,1-1.72,2.34,2.33,2.33,0,0,1-1,.2,4.7,4.7,0,0,1-1.84-.46c-3.82-1.65-7.62-3.13-12-4.86-1.81-.71-3.69-1.44-5.67-2.23l-3.34-1.33,3.55-.59a76.91,76.91,0,0,0,25.77-8.6Zm48.09,88c-2.41,25.08-11.83,48.65-20.47,68.78-12,27.89-25.9,51.71-42.6,72.8-8.12,10.26-18.29,21.87-32.1,30.16-6.87,4.12-13.46,6.19-19.69,6.19a26.83,26.83,0,0,1-8.31-1.3c-9.27-3-17-11.06-22.25-23.34-8.49-19.76-2.49-39.05,4.5-55.32,8-18.53,19.93-36.68,37.66-57.12l2.09-2.43c5.11-5.92,10.4-12,16.51-17.27,1.29-1.1,1.81-2.23,1.52-3.35s-1.26-1.46-3.18-1.6l-.43,0c-16.21-1.34-33.49-3.67-52.83-7.11-22.53-4-40.1-9.48-55.29-17.2-6.44-3.28-13.67-7.6-18.49-14.86-8.39-12.65-5.46-27.38,7.14-35.82,9.7-6.5,20.84-8.79,31.45-10.29a203.29,203.29,0,0,1,30.47-2h0c3.46.19,6.93.33,10.4.48,18,.77,36.68,1.56,54.39,7.66a236.42,236.42,0,0,1,71.2,39.12C232,185.18,232.41,193.83,231.61,202.15Zm102.58,89.4c-11.45,0-22-2.46-30.44-4.79q-7.08-2-14.17-3.84c-17-4.56-34.58-9.27-51.27-16l-.2-.08c-6.44-2.58-6.68-3.11-4.31-9.54l.06-.14a241.32,241.32,0,0,0,13.34-52.83c2.12-16.2-3.42-28.81-17.42-39.7a291.87,291.87,0,0,0-37.39-24.47c-2.34-1.3-3.48-2.66-2.37-5.77,9.16-25.71,19.76-53,35.13-78.31C233.13,43,240.48,33.8,249,26.41c14.7-12.82,29.51-12.38,42.84,1.26,11.95,12.23,18,28.4,17.88,48.05h0c-.26,14.65-6,31.26-18.08,52.3-9.86,17.18-22.44,33.29-38.46,49.24-.29.29-.61.57-.94.86-1.39,1.23-2.23,2.05-1.85,3.49.45,1.77,1.83,2,4.06,2.24l.82.08a281.59,281.59,0,0,1,65.85,16.28,105.07,105.07,0,0,1,32.36,19.15C366.64,231,367.37,246.22,366.2,261a71.47,71.47,0,0,1-2.26,11.86c-2.64,10.56-9.85,16.84-20.83,18.17A75.08,75.08,0,0,1,334.19,291.55Z"/></g></g></svg>