<svg xmlns="http://www.w3.org/2000/svg" viewBox="0 0 359.68 358.47"><defs><style>.cls-1{fill:none;}.cls-2{fill:#07b1a9;}</style></defs><g id="Layer_2" data-name="Layer 2"><g id="Layer_1-2" data-name="Layer 1"><path class="cls-1" d="M140.22,268.78l-.44-.72c-2.78-4.67-5.67-9.49-10.07-13.13-1.05-.86-1.73-1.17-2.38-1.11a2.87,2.87,0,0,0-1.82,1.3,89.64,89.64,0,0,1-9.57,9.9,106.21,106.21,0,0,0-8.38,8.46,195.38,195.38,0,0,1-13.65,14.06c-2.84,2.73-5.79,5.57-8.57,8.46-6.15,6.39-12.54,12.8-18.71,19-5.86,5.88-11.91,12-17.87,18.12l-.11.11.14.08c8.46,5.21,15.61,8.41,22.5,10.05a81.79,81.79,0,0,0,18.85,2.3,66.34,66.34,0,0,0,19-2.7,82.26,82.26,0,0,0,41.78-27.88c3.81-4.77,4.74-9.51,3-15.37A131.34,131.34,0,0,0,140.22,268.78Z"/><path class="cls-1" d="M55.67,28.12c3.09,3.4,6,6.61,9.18,9.61,9.41,8.93,20.43,19.59,30.76,30.92,2.88,3.15,5.69,4,9.42,2.92a78.54,78.54,0,0,1,35.89-2.48,91.24,91.24,0,0,1,23.87,8l.2.1,0-.23a71.43,71.43,0,0,0-13.07-32.46,77.45,77.45,0,0,0-32.28-25.66,73.85,73.85,0,0,0-34.27-6.48,76.58,76.58,0,0,0-34.1,10.7l-.14.08.11.11C52.75,24.92,54.23,26.54,55.67,28.12Z"/><path class="cls-1" d="M179.45,139.14h.08A12,12,0,0,0,191,127.37c-.06-6.7-4.69-11.25-11.53-11.32h-.11a11.44,11.44,0,0,0-7.92,3.45,11.3,11.3,0,0,0-3.49,7.93c0,2.58,1.5,5.59,4,8C174.29,137.78,177.08,139.14,179.45,139.14Z"/><path class="cls-1" d="M38.07,297.35c3.74-3.77,7.6-7.67,11.55-11.29,4.11-3.78,8.07-7.83,11.91-11.74,3.41-3.49,6.94-7.09,10.57-10.49,4.22-4,8.32-8.19,12.28-12.29,5.54-5.72,11.27-11.63,17.43-16.9,1.12-1,1.81-1.72,1.8-2.55s-.55-1.47-1.75-2.45l-1.57-1.29C91,220.78,81.45,213,73.67,203.45a21.53,21.53,0,0,1-1.86-2.85c-1.34-2.32-2.73-4.72-5.36-5-2.37-.26-4.63,1.14-6.8,2.5a24.86,24.86,0,0,1-3.23,1.83,70.83,70.83,0,0,0-23.76,17,76.7,76.7,0,0,0-14.92,24.73c-9.07,24-6.57,46.85,7.44,68l.08.12.11-.1C29.82,305.68,34,301.45,38.07,297.35Z"/><path class="cls-1" d="M216.31,192c1.17-3,2.75-4.64,5.13-5.36,7.14-2.16,13.83-5.6,20.3-8.92,1.84-.95,3.75-1.93,5.63-2.86,1.09-.54,2.2-1,3.37-1.47a26.23,26.23,0,0,0,7.56-4.14l.12-.1-.12-.09a3.71,3.71,0,0,0-4-.47c-4.75,1.94-9.73,3.5-14.55,5-6.83,2.14-13.89,4.35-20.43,7.7a16.46,16.46,0,0,1-20.24-4.47,16.75,16.75,0,0,1,0-20.76C205.31,148,213.8,142.42,222,137l1.77-1.18c9.49-6.3,20.85-13.44,33.12-18.63l.29-.13c1.2-.49,2.85-1.17,2.16-2.84a1.81,1.81,0,0,0-1-1.15,2.68,2.68,0,0,0-2.05.6,4.93,4.93,0,0,1-.94.48,237.45,237.45,0,0,0-33.89,14.09c-2.07,1-4.21,2.06-6.27,3A135.43,135.43,0,0,0,200.63,139c-12.49,7.95-25,8.18-37.15.71a148.5,148.5,0,0,0-13.67-7.16c-2.77-1.32-5.63-2.69-8.38-4.15-10.16-5.36-21-9.45-31.54-13.4l-2.31-.87-.74-.3c-1.06-.45-2.26-1-3.18-.56a2,2,0,0,0-1,1.24,1.32,1.32,0,0,0,0,1.15c.32.6,1.19.81,2,1a5.86,5.86,0,0,1,1.2.38c12.6,6.32,25.92,13.4,37.9,22.29,4.31,3.2,8.65,6.19,12.88,8.89,5.83,3.7,8.58,8.84,8.19,15.28s-3.81,11.19-9.88,13.66c-6.3,2.56-12.29,1.39-17.32-3.38a9.81,9.81,0,0,0-5.14-3c-9.61-1.58-19.56-3.21-29.53-4.77-1.2-.18-2.54-.33-3.38.35a2.17,2.17,0,0,0-.73,1.64c-.13,1.93,1.55,2.07,2.9,2.18l.67.07a113.9,113.9,0,0,1,28.26,7.82c4.24,1.72,8.88,4.19,11.12,9.5,6,14.13,12.52,27.67,17.55,37.9,9.87,20.07,16.07,42.4,19,68.27,0,.13,0,.27,0,.42.19,1.8.42,4,2.84,4h.22c2.36-.13,2.65-2.42,2.64-4.4-.06-10.32.83-20.77,1.69-30.87.3-3.57.61-7.28.88-10.92.87-11.87,4.13-21.08,9.95-28.15C206.19,212.19,212.28,202.37,216.31,192Z"/><path class="cls-1" d="M38.44,145.92c1,.84,2,1.77,3,2.68,2.62,2.49,5.34,5.07,9.37,6l.13,0,0-.12c0-.2.08-.34.11-.45a1.32,1.32,0,0,0,.06-.39c0-.55,0-1.1-.08-1.65l0-.65c-1.36-25.82,4.79-44.59,19.37-59.06a2.79,2.79,0,0,0,1-2,2.7,2.7,0,0,0-1.28-1.85,69.9,69.9,0,0,1-9.34-9.18,86.73,86.73,0,0,0-7.52-7.71c-.62-.53-1.27-1-1.91-1.51a17.27,17.27,0,0,1-3.89-3.66,64.14,64.14,0,0,0-9.85-10.3,70.71,70.71,0,0,1-9-9.15c-.56-.73-1.09-1.09-1.6-1.09h-.1c-.57,0-1.07.53-1.55,1.45-.62,1.2-1.25,2.4-1.88,3.59-4.7,8.94-9.57,18.19-10.17,28.9-.88,15.73-.09,28.77,6.61,41.26C24.66,129.85,30,139,38.44,145.92Z"/><path class="cls-1" d="M219.24,69c12.14-2,25-.83,39.45,3.43,3.22.95,5.5.31,7.38-2.1A132.56,132.56,0,0,1,280,55.84c2.43-2.28,4.94-4.63,7.32-7,2.18-2.21,4.35-4.51,6.44-6.74,5.41-5.75,11-11.7,17.44-16.66l.12-.1-.12-.1c-20.54-15.86-53.11-15.33-72.73-5.65a79.49,79.49,0,0,0-28.76,23.34C202.56,52.4,197.41,64,194.42,77.41l-.06.26.23-.12C202,74,210.1,70.44,219.24,69Z"/><path class="cls-1" d="M206.63,160.5a8,8,0,0,0-2.45,5.76,8.12,8.12,0,0,0,8,8h.11a8,8,0,1,0-5.67-13.8Z"/><path class="cls-1" d="M335.73,229.88a79.1,79.1,0,0,0-22.28-24,70.41,70.41,0,0,0-9.27-5.17c-2.27-1.13-4.63-2.29-6.84-3.62-2.58-1.53-4.31-1.21-6.39,1.22l-.27.31c-7.84,9.12-15.95,18.55-25.85,26-3.29,2.46-5,3.81-5.11,5.28s1.57,3.12,4.6,6l.05,0c.09.09.19.18.27.27,8.36,9.14,17.31,18,26,26.51,5.82,5.74,11.85,11.68,17.63,17.66,6.07,6.27,12,12.42,18.23,18.94q4.2,4.4,8.48,8.84l.11.11.08-.13c.74-1.15,1.46-2.14,2.16-3.08a20.08,20.08,0,0,0,3-5.06c4.7-12.81,6.75-24.45,6.28-35.56A70,70,0,0,0,335.73,229.88Z"/><path class="cls-1" d="M149.67,170.45a8.08,8.08,0,0,0-.28-16.15h-.09a8.08,8.08,0,0,0,.08,16.15Z"/><path class="cls-1" d="M338.45,54.21c-2-3.06-3.12-4.75-4.37-4.86h-.14c-1.22,0-2.55,1.39-5.12,4.08-.23.24-.49.48-.74.71l-.25.24c-12.52,11.81-24.42,24-35.4,35.35l-.48.47c-.62.6-1.21,1.16-1.21,1.89a2.66,2.66,0,0,0,1,1.79c4.47,4.34,7.13,9.81,9.48,15,7.81,17.36,10.24,31.56,7.88,46l0,.21.21-.08c3.83-1.53,6.54-4.08,9.15-6.55a44.86,44.86,0,0,1,4.37-3.79c8.39-6.11,13-15.09,17.39-23.78l.69-1.35c5.58-10.92,7.27-23.81,5.31-40.57C345.28,71.18,343.64,62.1,338.45,54.21Z"/><path class="cls-1" d="M306.5,325.21c-1.85-1.91-3.76-3.89-5.74-5.73-5-4.7-9.94-9.69-14.69-14.51-3.91-4-7.95-8.07-12-12-10.5-10.09-20.78-20.75-30.72-31.06l-6.95-7.2c-1.11-1.15-2-1.66-2.87-1.66h0c-.9,0-1.8.55-3.1,1.91-7.68,8-12.76,17.71-17.3,27a112.78,112.78,0,0,0-7.88,22,6.68,6.68,0,0,0,.69,5.3,59.36,59.36,0,0,0,18.09,20c11.3,8.06,26.82,17.1,46.6,15.5a40.24,40.24,0,0,0,5,.3c12.74,0,24.31-5.88,35.53-11.6l.07,0c.89-.45,1.31-.86,1.38-1.33s-.38-1.15-1.11-1.84C309.76,328.57,308.1,326.86,306.5,325.21Z"/><path class="cls-2" d="M355.51,242.1c-4.29-14-12.08-26.41-23.8-37.86-9.78-9.56-21.79-16.36-38.93-22.05a9.54,9.54,0,0,0-2.95-.51,5.82,5.82,0,0,0-5.35,3.12,48.21,48.21,0,0,1-7.53,9.58l-.12.13c-1.45,1.55-2.83,3.21-4.16,4.81a56.59,56.59,0,0,1-9,9.22c-5.21,4-10.3,8.25-15.23,12.39l-4.92,4.12a5.74,5.74,0,0,0-2.37,4.08,6.11,6.11,0,0,0,2.11,4.5c.87.87,1.71,1.78,2.52,2.66s1.65,1.78,2.51,2.64l9.31,9.3c14.43,14.41,29.36,29.32,44.07,43.94,8.19,8.14,16.57,16.37,24.67,24.33,2.36,2.32,4.73,4.63,7.09,7,1.52,1.49,3,2.19,4.33,2.06a4,4,0,0,0,2.86-2.06c1.07-1.64,2.2-3.28,3.29-4.86a92.05,92.05,0,0,0,7.91-13c3.33-7.12,4.89-14.83,6.39-22.29.46-2.24.93-4.56,1.44-6.84V259.93c-.43-1.84-.83-3.75-1.22-5.6C357.61,250.29,356.73,246.1,355.51,242.1ZM340.34,300a20.08,20.08,0,0,1-3,5.06c-.7.94-1.42,1.93-2.16,3.08l-.08.13-.11-.11q-4.27-4.46-8.48-8.84c-6.25-6.52-12.16-12.67-18.23-18.94-5.78-6-11.81-11.92-17.63-17.66-8.66-8.54-17.61-17.37-26-26.51-.08-.09-.18-.18-.27-.27l-.05,0c-3-2.93-4.69-4.55-4.6-6s1.82-2.82,5.11-5.28c9.9-7.4,18-16.83,25.85-26l.27-.31c2.08-2.43,3.81-2.75,6.39-1.22,2.21,1.33,4.57,2.49,6.84,3.62a70.41,70.41,0,0,1,9.27,5.17,79.1,79.1,0,0,1,22.28,24,70,70,0,0,1,10.89,34.57C347.09,275.56,345,287.2,340.34,300Z"/><path class="cls-2" d="M165.74,297.13c-2.72-9.68-5.53-19.68-10.91-28.82-7.39-12.54-14.58-21.93-22.61-29.58-2.42-2.3-5-2.48-7.28-.51l-2.2,1.88a81.49,81.49,0,0,0-9.84,9.37,208.14,208.14,0,0,1-16.2,16.7c-2.41,2.3-4.9,4.69-7.3,7.08-8.64,8.63-15.83,15.84-23.17,23.36-2.36,2.43-4.92,4.75-7.4,7-4.73,4.3-9.63,8.74-13.39,14.11a28.93,28.93,0,0,1-6.39,6.07,40.56,40.56,0,0,0-4.79,4.12c-2.58,2.73-3.65,4.8-3.47,6.71s1.49,3.51,4.14,5.42a67,67,0,0,0,8.15,5l1.94,1c9.34,4.91,19,10,30,11,2.3.21,4.62.59,6.87,1,1,.17,2.07.34,3.11.49H95.14c1.87-.34,3.8-.66,5.67-1,7.83-1.29,15.92-2.63,23.35-6.54,1.92-1,3.92-2,5.85-2.88,4.47-2.13,9.08-4.33,13-7.4,12.08-9.46,20-18.64,24.92-28.91a7.38,7.38,0,0,0,.4-5.67C167.42,303.12,166.57,300.07,165.74,297.13Zm-14.83,17.95A82.26,82.26,0,0,1,109.13,343a66.34,66.34,0,0,1-19,2.7,81.79,81.79,0,0,1-18.85-2.3c-6.89-1.64-14-4.84-22.5-10.05l-.14-.08.11-.11c6-6.16,12-12.24,17.87-18.12,6.17-6.2,12.56-12.61,18.71-19,2.78-2.89,5.73-5.73,8.57-8.46a195.38,195.38,0,0,0,13.65-14.06,106.21,106.21,0,0,1,8.38-8.46,89.64,89.64,0,0,0,9.57-9.9,2.87,2.87,0,0,1,1.82-1.3c.65-.06,1.33.25,2.38,1.11,4.4,3.64,7.29,8.46,10.07,13.13l.44.72a131.34,131.34,0,0,1,13.71,30.93C155.65,305.57,154.72,310.31,150.91,315.08Z"/><path class="cls-2" d="M181,94.53c.1,2.16.2,4.21,2.41,5.32s4,0,5.84-1.27c.37-.25.75-.51,1.13-.75a18.73,18.73,0,0,0,4.1-3.79,19.12,19.12,0,0,1,4.3-4,62.72,62.72,0,0,1,29.37-9.3C237.78,80.28,248,82,258.46,86c5.28,2,9.24,1.34,12.48-2.11,6.87-7.29,12.58-13.1,18-18.26,5.22-5,10.34-10.26,15.3-15.35,3.74-3.84,7.6-7.82,11.48-11.64.9-.89,1.83-1.76,2.72-2.61a58,58,0,0,0,7.71-8.3c3.09-4.34,2.9-6.22-.93-9.14a110.88,110.88,0,0,0-22.57-13c-4.66-2.07-9.72-3-14.62-3.87-2.79-.51-5.68-1-8.46-1.76H260.23c-.4.13-.81.29-1.2.44a12.79,12.79,0,0,1-2.69.8,85.45,85.45,0,0,0-30.48,10.61A82.27,82.27,0,0,0,197.11,38.2C184.85,56.65,179.58,74.73,181,93.49Zm13.38-17.12c3-13.4,8.14-25,15.31-34.52a79.49,79.49,0,0,1,28.76-23.34c19.62-9.68,52.19-10.21,72.73,5.65l.12.1-.12.1c-6.43,5-12,10.91-17.44,16.66-2.09,2.23-4.26,4.53-6.44,6.74-2.38,2.41-4.89,4.76-7.32,7A132.56,132.56,0,0,0,266.07,70.3c-1.88,2.41-4.16,3-7.38,2.1C244.28,68.14,231.38,67,219.24,69c-9.14,1.47-17.24,5-24.65,8.58l-.23.12Z"/><path class="cls-2" d="M39.38,30.75A195.57,195.57,0,0,1,54.44,45.29C58.56,49.56,62.81,54,67.34,58a15.77,15.77,0,0,1,2.26,2.66,13.45,13.45,0,0,0,2.89,3.15c4.59,3.28,8.41,7.54,12.11,11.66l.13.15.9,1c6,6.69,11.59,13,21.86,7.28a8,8,0,0,1,2.4-.72l.71-.13A86.94,86.94,0,0,1,128.77,81a63.48,63.48,0,0,1,18.66,2.72c9,2.72,15.87,8.5,22.55,14.1l1.56,1.3.3.25c1.45,1.23,2.83,2.39,4.88,1.48,1.83-.81,1.92-2.43,2-4.14,0-.15,0-.31,0-.46C180.07,76.63,176,59.56,166.4,44c-.58-.95-1.16-1.92-1.72-2.86a49.24,49.24,0,0,0-6.75-9.56c-.66-.67-1.39-1.32-2.1-1.93a23.74,23.74,0,0,1-3.17-3.17c-6.57-8.48-15.9-13.24-24.92-17.84L123.55,6.5c-5.79-3-12.34-4.14-18.68-5.22-2.3-.39-4.67-.79-7-1.28H82.23l-1.1.25a14.5,14.5,0,0,1-2.45.46c-17.55,1.21-32.17,9.74-43,17A5.85,5.85,0,0,0,33,21.17a4,4,0,0,0,.79,3A32.85,32.85,0,0,0,39.38,30.75Zm11.86-7.67a76.58,76.58,0,0,1,34.1-10.7,73.85,73.85,0,0,1,34.27,6.48,77.45,77.45,0,0,1,32.28,25.66A71.43,71.43,0,0,1,165,77l0,.23-.2-.1a91.24,91.24,0,0,0-23.87-8A78.54,78.54,0,0,0,105,71.57c-3.73,1.1-6.54.23-9.42-2.92-10.33-11.33-21.35-22-30.76-30.92-3.16-3-6.09-6.21-9.18-9.61-1.44-1.58-2.92-3.2-4.46-4.85l-.11-.11Z"/><path class="cls-2" d="M358.87,76.29c0-.18,0-.35-.06-.53-1.95-14.18-7.5-27.29-17-40.07-2.48-3.35-3.94-5-5.56-5.2a2.55,2.55,0,0,0-.39,0c-1.54,0-3.33,1.18-6.49,3.66l-.75.59a16.15,16.15,0,0,0-3.32,3.05C321,43.61,315.61,48.59,310.4,53.4c-2.53,2.33-5.13,4.74-7.58,7.22s-4.95,5.09-7.35,7.6a227.65,227.65,0,0,1-18.76,18.21c-2.1,1.74-3.19,3.54-3.24,5.37s1,4,3.29,6.06c.89.82,1.85,1.6,2.79,2.35a23.28,23.28,0,0,1,5.51,5.56c7.38,11.91,11.35,23.77,12.12,36.27.5,8.06-1.92,15.75-4.26,23.18-.21.64-.41,1.28-.61,1.92-.66,2.12-1.28,4.09.37,5.92s3.44,1.35,5.74.42c1.74-.7,3.55-1.3,5.3-1.88,1.24-.42,2.53-.85,3.78-1.31,9.11-3.35,17.7-9.25,27-18.55,7.57-7.55,13.6-16.88,19-29.35a82.66,82.66,0,0,0,4.37-15.21c.55-2.54,1.13-5.17,1.82-7.73V78.32A2.56,2.56,0,0,1,358.87,76.29Zm-18,43.31-.69,1.35c-4.43,8.69-9,17.67-17.39,23.78a44.86,44.86,0,0,0-4.37,3.79c-2.61,2.47-5.32,5-9.15,6.55l-.21.08,0-.21c2.36-14.48-.07-28.68-7.88-46-2.35-5.22-5-10.69-9.48-15a2.66,2.66,0,0,1-1-1.79c0-.73.59-1.29,1.21-1.89l.48-.47c11-11.39,22.88-23.54,35.4-35.35l.25-.24c.25-.23.51-.47.74-.71,2.57-2.69,3.9-4.08,5.12-4.08h.14c1.25.11,2.36,1.8,4.37,4.86,5.19,7.89,6.83,17,7.74,24.82C348.15,95.79,346.46,108.68,340.88,119.6Z"/><path class="cls-2" d="M194.76,250.92c.9-9.33,3.6-16.58,8.27-22.16,9.69-11.58,15.84-21.35,20-31.68a5.8,5.8,0,0,1,3.75-3.75A212.5,212.5,0,0,0,249,183.24c4-2,8.11-4.07,12.23-6a7.15,7.15,0,0,0,4.33-4.92c1.1-4.29.5-7.4-1.87-9.77-3.09-3.09-7.16-2.58-10.74-1.85a65.19,65.19,0,0,0-11,3.64,79.1,79.1,0,0,1-9,3.15l-.68.22a1.87,1.87,0,0,1-3-1.84c-.69-7.21-4.51-12.35-11.37-15.3l-.19-.08.17-.13c1.11-.9,2.16-1.83,3.18-2.73a36.75,36.75,0,0,1,6.52-5c3.83-2.09,7.63-4.39,11.31-6.62,6.6-4,13.42-8.12,20.69-11.18a24.46,24.46,0,0,0,3.24-1.71c4.27-2.67,5.8-8.25,3.62-13.26-1.69-3.89-6.12-5.56-10.77-4.08-10.06,3.22-21.46,6.86-32,12.55-5.37,2.9-11.08,5.44-16.6,7.9-2.47,1.1-5,2.24-7.55,3.41l-.16.07v-.18c-1.32-16.4-8.67-20.46-19.3-21.5-4.17-.41-8.05,1.34-11.29,3.1-5.92,3.24-8.83,8.73-8.89,16.8v.19l-.18-.08c-2.22-1-4.39-2-6.5-3-4.52-2-8.8-4-12.94-6.18-9.24-4.91-19.79-9.07-33.2-13.11-5.53-1.67-10.56.66-12.24,5.65-1.75,5.17.54,9.66,6.27,12.31a233.74,233.74,0,0,1,39.64,23.1l.15.11-.16.1c-5.42,3.15-8.23,7.44-8.58,13.1a2.43,2.43,0,0,1-.7,1.82,2.82,2.82,0,0,1-2.24.14l-.41-.07L103.39,158a10.24,10.24,0,0,0-1.75-.14A11.18,11.18,0,0,0,95.07,160a10.54,10.54,0,0,0-4.3,7,8.91,8.91,0,0,0,1.69,6.69,11.11,11.11,0,0,0,7.52,4.13c9,1.21,17.6,4.08,25.7,6.91a16.26,16.26,0,0,1,10.2,9.27c1.31,3,2.44,6,3.54,9,2.12,5.76,4.31,11.71,7.78,17,8.55,13,12.94,27.75,17.4,44.24,2.92,10.76,5.35,20.5,5.66,30.71a11.78,11.78,0,0,0,3.61,8.37,10.62,10.62,0,0,0,7.79,2.8c6.18-.28,10.24-5,10.34-12.09C192.22,279,193.52,263.82,194.76,250.92Zm25.63-84.45a8.12,8.12,0,0,1-8.09,7.83h-.11a8.12,8.12,0,0,1-8-8,8,8,0,0,1,2.45-5.76,8.17,8.17,0,0,1,6-2.28A8.07,8.07,0,0,1,220.39,166.47Zm-48.95-47a11.44,11.44,0,0,1,7.92-3.45h.11c6.84.07,11.47,4.62,11.53,11.32a12,12,0,0,1-11.47,11.77h-.08c-2.37,0-5.16-1.36-7.49-3.66-2.51-2.46-4-5.47-4-8A11.3,11.3,0,0,1,171.44,119.5ZM186.61,252c-.27,3.64-.58,7.35-.88,10.92-.86,10.1-1.75,20.55-1.69,30.87,0,2-.28,4.27-2.64,4.4h-.22c-2.42,0-2.65-2.23-2.84-4,0-.15,0-.29,0-.42-2.89-25.87-9.09-48.2-19-68.27-5-10.23-11.57-23.77-17.55-37.9-2.24-5.31-6.88-7.78-11.12-9.5a113.9,113.9,0,0,0-28.26-7.82l-.67-.07c-1.35-.11-3-.25-2.9-2.18a2.17,2.17,0,0,1,.73-1.64c.84-.68,2.18-.53,3.38-.35,10,1.56,19.92,3.19,29.53,4.77a9.81,9.81,0,0,1,5.14,3c5,4.77,11,5.94,17.32,3.38,6.07-2.47,9.49-7.19,9.88-13.66s-2.36-11.58-8.19-15.28c-4.23-2.7-8.57-5.69-12.88-8.89-12-8.89-25.3-16-37.9-22.29a5.86,5.86,0,0,0-1.2-.38c-.85-.21-1.72-.42-2-1a1.32,1.32,0,0,1,0-1.15,2,2,0,0,1,1-1.24c.92-.39,2.12.11,3.18.56l.74.3,2.31.87c10.51,4,21.38,8,31.54,13.4,2.75,1.46,5.61,2.83,8.38,4.15a148.5,148.5,0,0,1,13.67,7.16c12.16,7.47,24.66,7.24,37.15-.71a135.43,135.43,0,0,1,14.57-7.67c2.06-1,4.2-2,6.27-3a237.45,237.45,0,0,1,33.89-14.09,4.93,4.93,0,0,0,.94-.48,2.68,2.68,0,0,1,2.05-.6,1.81,1.81,0,0,1,1,1.15c.69,1.67-1,2.35-2.16,2.84l-.29.13c-12.27,5.19-23.63,12.33-33.12,18.63L222,137c-8.21,5.42-16.7,11-22.94,19.11a16.75,16.75,0,0,0,0,20.76,16.46,16.46,0,0,0,20.24,4.47c6.54-3.35,13.6-5.56,20.43-7.7,4.82-1.51,9.8-3.07,14.55-5a3.71,3.71,0,0,1,4,.47l.12.09-.12.1a26.23,26.23,0,0,1-7.56,4.14c-1.17.48-2.28.93-3.37,1.47-1.88.93-3.79,1.91-5.63,2.86-6.47,3.32-13.16,6.76-20.3,8.92-2.38.72-4,2.37-5.13,5.36-4,10.33-10.12,20.15-19.75,31.83C190.74,230.94,187.48,240.15,186.61,252Zm-45.34-89.71a8.12,8.12,0,0,1,8-8h.09a8.08,8.08,0,0,1,.28,16.15h-.29a8.21,8.21,0,0,1-8.11-8.14Z"/><path class="cls-2" d="M42.05,311.83l2-1.73a58.62,58.62,0,0,0,7-6.75A205.94,205.94,0,0,1,68,285.9c2-1.85,4-3.77,5.92-5.67,2.79-2.73,5.52-5.61,8.17-8.4a163.55,163.55,0,0,1,15.6-15.06,29,29,0,0,0,4-4.37,23.91,23.91,0,0,1,4.77-4.91c3.58-2.47,6.36-5.73,9-8.88,1.48-1.74,3-3.54,4.67-5.18a4,4,0,0,0,1.4-3,4.52,4.52,0,0,0-1.9-3.13c-1.73-1.4-3.5-2.8-5.22-4.15-2.42-1.91-4.92-3.87-7.32-5.88l-1.33-1.11c-10.43-8.71-21.22-17.7-28.45-29.88-1.58-2.66-3.51-5.11-6.93-5.15-.67.16-1.38.31-2.06.46a26.14,26.14,0,0,0-4.51,1.22c-13,5.15-26.49,11.48-37.6,22.73-9.22,9.35-16.25,20.7-22.13,35.73-1.94,4.94-2.68,10-3.44,16.13-3,23.87,3.05,46.21,17.94,66.41,2.05,2.77,3.7,4.06,5.35,4.18s3.64-1,6.35-3.79c1.53-1.56,3-3.23,4.44-4.84A91.26,91.26,0,0,1,42.05,311.83Zm-16.68-2.11-.11.1-.08-.12c-14-21.19-16.51-44.08-7.44-68a76.7,76.7,0,0,1,14.92-24.73,70.83,70.83,0,0,1,23.76-17,24.86,24.86,0,0,0,3.23-1.83c2.17-1.36,4.43-2.76,6.8-2.5,2.63.3,4,2.7,5.36,5a21.53,21.53,0,0,0,1.86,2.85c7.78,9.5,17.36,17.33,26.62,24.9l1.57,1.29c1.2,1,1.74,1.73,1.75,2.45s-.68,1.59-1.8,2.55c-6.16,5.27-11.89,11.18-17.43,16.9-4,4.1-8.06,8.33-12.28,12.29-3.63,3.4-7.16,7-10.57,10.49-3.84,3.91-7.8,8-11.91,11.74-3.95,3.62-7.81,7.52-11.55,11.29C34,301.45,29.82,305.68,25.37,309.72Z"/><path class="cls-2" d="M319.84,320c-7.84-7.93-15.95-16.14-24.15-24-7.31-7-14.58-14.27-21.6-21.31l-6.44-6.43-5.16-5.15c-7.77-7.73-15.8-15.73-23.55-23.76-1.95-2-3.87-3-5.74-3a6.59,6.59,0,0,0-4.56,2.12c-5.86,5.58-11.48,11.13-15.91,17.75A139.3,139.3,0,0,0,192.35,303c-.68,3-1.25,6.45.47,9.79a74.47,74.47,0,0,0,23,26.41c19.42,13.84,36.38,19.68,53.35,18.36h0c19.7.95,37.24-4.94,56.88-19.07,2.63-1.89,3.92-3.59,4.07-5.35s-.9-3.74-3.28-6.14Zm-8.66,13.4-.07,0c-11.22,5.72-22.79,11.6-35.53,11.6a40.24,40.24,0,0,1-5-.3c-19.78,1.6-35.3-7.44-46.6-15.5a59.36,59.36,0,0,1-18.09-20,6.68,6.68,0,0,1-.69-5.3,112.78,112.78,0,0,1,7.88-22c4.54-9.24,9.62-18.93,17.3-27,1.3-1.36,2.2-1.91,3.1-1.91h0c.87,0,1.76.51,2.87,1.66l6.95,7.2c9.94,10.31,20.22,21,30.72,31.06,4.08,3.92,8.12,8,12,12,4.75,4.82,9.66,9.81,14.69,14.51,2,1.84,3.89,3.82,5.74,5.73,1.6,1.65,3.26,3.36,4.95,5,.73.69,1.19,1.27,1.11,1.84S312.07,332.91,311.18,333.36Z"/><path class="cls-2" d="M.14,89.1c.09,10.07.78,20.75,5.16,30.62C10.37,131.15,17.16,144.3,29,155.16c8.71,8,19.06,13.77,33.56,18.82,2.21.76,3.85.72,4.73-.12s1.06-2.66.34-5.11l-.2-.68a85.41,85.41,0,0,1-3.35-14.53c-2.76-24.91,4-43.67,20.77-57.36,2.55-2.08,3.7-3.76,3.75-5.42s-1-3.42-3.52-5.66C78.32,79,71.8,72.32,65.49,65.91c-2.34-2.37-4.76-4.83-7.15-7.22s-4.83-4.8-7.19-7.14C44.52,45,37.67,38.25,31.27,31.26c-1.9-2.07-3.51-3-5.08-3h0c-1.56,0-3.18,1-5.09,3.05C14.3,38.67,10,48.07,6.14,56.36,1.83,65.72-.19,76.73.14,89.1Zm13.19-9.32c.6-10.71,5.47-20,10.17-28.9.63-1.19,1.26-2.39,1.88-3.59.48-.92,1-1.4,1.55-1.45H27c.51,0,1,.36,1.6,1.09a70.71,70.71,0,0,0,9,9.15,64.14,64.14,0,0,1,9.85,10.3A17.27,17.27,0,0,0,51.36,70c.64.48,1.29,1,1.91,1.51a86.73,86.73,0,0,1,7.52,7.71,69.9,69.9,0,0,0,9.34,9.18,2.7,2.7,0,0,1,1.28,1.85,2.79,2.79,0,0,1-1,2C55.78,106.8,49.63,125.57,51,151.39l0,.65c0,.55.06,1.1.08,1.65a1.32,1.32,0,0,1-.06.39c0,.11-.07.25-.11.45l0,.12-.13,0c-4-1-6.75-3.53-9.37-6-1-.91-1.94-1.84-3-2.68C30,139,24.66,129.85,19.94,121,13.24,108.55,12.45,95.51,13.33,79.78Z"/></g></g></svg>