<svg xmlns="http://www.w3.org/2000/svg" viewBox="0 0 428.95 423.04"><defs><style>.cls-1{fill:none;}.cls-2{fill:#07b1a9;}</style></defs><g id="Layer_2" data-name="Layer 2"><g id="Layer_1-2" data-name="Layer 1"><path class="cls-1" d="M124.26,301a13.65,13.65,0,0,0-1.66-18.82,13.82,13.82,0,0,0-18.86.67c-3.31,3.13-7.16,6.86-10.72,10.76-4,4.35-4.76,9.58-2.28,15.13,2.29,5.12,6.63,7.83,12.57,7.83h.62a10.75,10.75,0,0,0,7.55-2.68l1.45-1.35A122.4,122.4,0,0,0,124.26,301Z"/><path class="cls-1" d="M160.15,326c4.85-5.28,4.34-13.74-1.12-18.87A13.4,13.4,0,0,0,140.5,307c-7.3,6.86-14.41,14-21.15,21.13-4,4.25-4.71,9.64-2,15.19,2.34,4.83,6.6,7.48,12.32,7.67h.55a11.11,11.11,0,0,0,8-3l2.42-2.33C147.12,339.33,153.89,332.78,160.15,326Z"/><path class="cls-1" d="M190.34,356.36c4.8-5.25,4.27-13.7-1.2-18.84a13.35,13.35,0,0,0-18.51-.1c-7.18,6.74-14.29,13.85-21.14,21.11-3.79,4-4.58,9.42-2.16,14.81,2.32,5.16,6.65,7.92,12.53,8l.71,0a10.88,10.88,0,0,0,7.79-2.94l2.9-2.82C177.64,369.41,184.23,363,190.34,356.36Z"/><path class="cls-1" d="M122.13,126.71a3.13,3.13,0,0,0-1-5.52c-11-6.87-20.15-12.67-28.66-18.25-2.54-1.66-4.13-1.4-6,1-20.53,25.54-42,52.17-65.73,81.39-1.69,2.09-2.2,3.83.48,6.07,6.06,5.06,12.15,10.32,18,15.41l6.85,5.91,1.31,1.09.8.66h.44a3.25,3.25,0,0,0,2.78-1.7l.28-.38q11.51-14,23-28C90.22,165.5,106.29,145.92,122.13,126.71Z"/><path class="cls-1" d="M410,182c-.38-.55-.63-.91-.9-1.26l-13.51-17.55c-15-19.43-30.43-39.53-45.6-59.33-1.93-2.52-3.61-2.18-5.7-.82-10.35,6.73-19.73,12.69-28.65,18.21a3.3,3.3,0,0,0-1,5.84c5.88,7.31,11.77,14.82,17.46,22.08l5.94,7.57,4,5.13q17.7,22.53,35.4,45.05l.34.45a3.51,3.51,0,0,0,2.31,1.76h.24a3.71,3.71,0,0,0,2.37-1.13c7.15-6.32,14.52-12.64,21.65-18.74l4.08-3.5a6,6,0,0,1,1.26-.72c.25-.13.51-.25.76-.39l1-.54-.64-.91C410.46,182.69,410.19,182.31,410,182Z"/><path class="cls-1" d="M299.5,132.14a6.75,6.75,0,0,0-6-3c-6.3.09-12.71.07-18.91.06-3.76,0-7.52,0-11.28,0-3.07,0-6.23,0-9.35.06-1.87.06-3.79,0-5.64,0-4.12-.14-8.37-.27-12.56.94q-27.76,8-55.53,16a6.28,6.28,0,0,0-4.25,3q-10.24,18.23-20.55,36.43l-10.19,18a13.09,13.09,0,0,0-.94,11c1.85,5.39,5.72,8.59,11.2,9.26,6.16.76,11.08-1.8,14.26-7.39l4.33-7.63c5.93-10.41,12.06-21.18,18-31.85,2.33-4.22,5.3-5.86,9.93-5.48,13.48,1.09,27,2,40.27,2.7a16.4,16.4,0,0,1,11.57,5.06c16.9,17,34.14,34.27,50.82,50.95Q323.47,249,342.3,267.92c1.19,1.2,2.22,2.13,3.36,2.13a2.43,2.43,0,0,0,.38,0c1.29-.23,2.09-1.62,2.77-3.09,6.27-13.63,12.66-27,19-39.69,1.87-3.76,1.61-6.36-.95-9.59C344.07,189,321,159.61,299.5,132.14Z"/><path class="cls-1" d="M211.36,371.89c-4.94-2.85-10-2.71-14.18.37a69.37,69.37,0,0,0-14.45,14.39c-3.06,4.08-3.27,9.13-.59,14.2,2.47,4.68,6.69,7.15,12.22,7.15h0c8.32,0,23.67-15.41,23.76-26.19v0C218.1,378.78,216,374.56,211.36,371.89Z"/><path class="cls-1" d="M245.25,192a10,10,0,0,0-7-3l-4.23-.25c-8.51-.48-17.31-1-25.93-1.74-3.58-.32-5.12,1.13-6.47,3.58l-.2.36c-6.18,11.2-12.58,22.78-19.28,33.92a29.07,29.07,0,0,1-24.67,14.31,28.33,28.33,0,0,1-24.45-13.3c-6.3-9.91-6.38-20.39-.25-31.16,7.43-13.06,14.83-26.14,22.34-39.42l10-17.73-7.75-2.15c-5.44-1.51-10.58-2.93-15.76-4.41-2.75-.78-4.21.66-5.58,2.34C114.43,159.81,88.74,191.16,62.45,223c-2.09,2.54-2.15,4.34-.21,6.89,9.36,12.36,18.7,25,27.76,37.47,2.07,2.86,3.78,3.85,7.44,1.33a28.28,28.28,0,0,1,25.32-3.58,27.91,27.91,0,0,1,17.74,17.95c1.61,4.91,3.95,5.66,8.29,5.44a27.89,27.89,0,0,1,29.39,26.23,4.8,4.8,0,0,0,1.24,3.45,3.85,3.85,0,0,0,2.93.7,10.56,10.56,0,0,1,3,.34c15.11,3.27,24.15,15.72,23,31.72q0,.31-.06.6c-.14,1.39-.33,3.31,2.54,4.24,9.33,3,16.1,8.31,19.56,15.25s3.59,15.17.51,24.13l-.14.39a3.45,3.45,0,0,0,.23,3.62c2.27,3.14,7.53,5.42,11.91,5.42a10.6,10.6,0,0,0,2.36-.26,13.75,13.75,0,0,0,7.21-23c-4.37-4.82-9.06-9.48-13.59-14-2-2-3.92-3.91-5.86-5.88-2.65-2.68-3.48-5-2.78-7.69a7.49,7.49,0,0,1,5.17-5.62,8.34,8.34,0,0,1,8,2.42c4.36,4.24,8.7,8.67,12.89,12.95l6,6.15c3.92,3.95,8.31,5.43,13.07,4.4a13.71,13.71,0,0,0,7.43-22.95c-3.92-4.4-8.17-8.61-12.28-12.68-1.71-1.7-3.42-3.39-5.1-5.1q-4-4-7.94-8c-3.77-3.8-7.55-7.6-11.3-11.42-2.46-2.5-3.14-5.18-2.08-8.2a7.17,7.17,0,0,1,6-4.93c2.66-.45,4.87.5,7.62,3.3q8.82,8.94,17.65,17.85,8.34,8.42,16.66,16.85c4.43,4.49,8.77,6.08,13.67,5,5.52-1.22,9.16-4.52,10.51-9.55,1.48-5.5.06-10.47-4.22-14.76-16.88-16.93-33.39-33.62-53-53.47-3.84-3.88-4.24-8.33-1.06-11.61a6.88,6.88,0,0,1,5-2.22,10.2,10.2,0,0,1,6.91,3.33q13.28,13.31,26.48,26.68l1.37,1.38q11.76,11.88,23.51,23.79l1.32,1.34c4.16,4.21,8.52,5.78,13.35,4.81,5.53-1.1,9.21-4.35,10.64-9.4,1.58-5.58.11-10.66-4.35-15.11C311.55,258.43,279.84,226.72,245.25,192Z"/><path class="cls-2" d="M428.15,180.82c-.73-1-1.47-2-2.22-2.95l-53.08-68.94L357,88.29c-4.53-5.89-7.47-6.43-13.65-2.51l-8,5.1c-10.5,6.65-21.36,13.54-32,20.42A17.44,17.44,0,0,1,293,114.37c-10.82-.1-21.82-.09-32.46-.08H240.75a30.5,30.5,0,0,0-8.71,1.27q-10.09,2.94-20.21,5.83t-20.05,5.79a11.35,11.35,0,0,1-6.67.12c-5.12-1.46-10.35-2.87-15.41-4.24-5.28-1.43-10.74-2.9-16.09-4.43-1.46-.42-2.92-.8-4.38-1.17-5.22-1.35-10.61-2.73-15.48-6-10.4-6.92-21.16-13.68-31.57-20.22-3.16-2-6.32-4-9.47-6-5-3.13-8.43-2.64-11.94,1.72Q41.94,135.07,3.14,183.17c-4.54,5.64-4.22,8.83,1.38,13.68q9.33,8.09,18.7,16.11,7.86,6.76,15.71,13.53l.8.69a43.55,43.55,0,0,1,7.1,7.13c10.36,14.1,21.48,29.18,32.55,43.85,2,2.71,2.68,4.83.22,8.29A28.64,28.64,0,0,0,97,331.08c3.1.67,4,1.91,3.89,5.09-.7,14.57,10.13,27.75,24.14,29.36,4.14.48,5.81,2.14,6.4,6.36,1.81,13,11.21,22.58,23.4,23.88,6.49.69,12.37,2,13.15,10.6a2.19,2.19,0,0,1,.11.2,28.41,28.41,0,0,0,20.87,16,29.26,29.26,0,0,0,25.83-8.26c3.59-3.52,5.92-4.46,10.28-.71,6.5,5.61,14.8,7.43,24,5.27,12.56-2.95,20.3-11.87,22.39-25.81l.06-.39c.19-1.39.43-3.12,3.21-3.5,16-2.17,24.58-10.65,27-26.66.33-2.13,1-3.34,3.56-3.63,14.85-1.62,24.58-11.12,26.7-26.06l0-.28c.25-1.82.51-3.7,3.8-4a28.51,28.51,0,0,0,23.41-41.47,7.56,7.56,0,0,1,.09-7.44c1.42-2.91,2.88-5.8,4.33-8.7,3.83-7.59,7.78-15.44,10.88-23.45,5.8-15,15.46-27.48,29.53-38.28,8.93-6.85,17.54-13.71,24.89-22.14v-5.19Zm-376.74,32a3.25,3.25,0,0,1-2.78,1.7h-.44l-.8-.66-1.31-1.09-6.85-5.91c-5.88-5.09-12-10.35-18-15.41-2.68-2.24-2.17-4-.48-6.07,23.7-29.22,45.2-55.85,65.73-81.39,1.92-2.4,3.51-2.66,6-1,8.51,5.58,17.62,11.38,28.66,18.25a3.13,3.13,0,0,1,1,5.52c-15.84,19.21-31.91,38.79-47.45,57.71q-11.49,14-23,28Zm60.07,101.14a10.75,10.75,0,0,1-7.55,2.68h-.62c-5.94,0-10.28-2.71-12.57-7.83C88.26,303.21,89.05,298,93,293.63c3.56-3.9,7.41-7.63,10.72-10.76a13.82,13.82,0,0,1,18.86-.67A13.65,13.65,0,0,1,124.26,301a122.4,122.4,0,0,1-11.33,11.55ZM138.15,348a11.11,11.11,0,0,1-8,3h-.55c-5.72-.19-10-2.84-12.32-7.67-2.69-5.55-2-10.94,2-15.19,6.74-7.16,13.85-14.27,21.15-21.13a13.4,13.4,0,0,1,18.53.13c5.46,5.13,6,13.59,1.12,18.87-6.26,6.83-13,13.38-19.58,19.71Zm33.11,27.59-2.9,2.82a10.88,10.88,0,0,1-7.79,2.94l-.71,0c-5.88-.06-10.21-2.82-12.53-8-2.42-5.39-1.63-10.79,2.16-14.81,6.85-7.26,14-14.37,21.14-21.11a13.35,13.35,0,0,1,18.51.1c5.47,5.14,6,13.59,1.2,18.84C184.23,363,177.64,369.41,171.26,375.58Zm46.89,6.23c-.09,10.78-15.44,26.18-23.76,26.19h0c-5.53,0-9.75-2.47-12.22-7.15-2.68-5.07-2.47-10.12.59-14.2a69.37,69.37,0,0,1,14.45-14.39c4.21-3.08,9.24-3.22,14.18-.37,4.61,2.67,6.74,6.89,6.79,9.89Zm128.4-77.71c-1.43,5-5.11,8.3-10.64,9.4-4.83,1-9.19-.6-13.35-4.81l-1.32-1.34q-11.76-11.91-23.51-23.79l-1.37-1.38q-13.23-13.35-26.48-26.68a10.2,10.2,0,0,0-6.91-3.33,6.88,6.88,0,0,0-5,2.22c-3.18,3.28-2.78,7.73,1.06,11.61,19.61,19.85,36.12,36.54,53,53.47,4.28,4.29,5.7,9.26,4.22,14.76-1.35,5-5,8.33-10.51,9.55-4.9,1.09-9.24-.5-13.67-5q-8.33-8.43-16.66-16.85-8.82-8.91-17.65-17.85c-2.75-2.8-5-3.75-7.62-3.3a7.17,7.17,0,0,0-6,4.93c-1.06,3-.38,5.7,2.08,8.2,3.75,3.82,7.53,7.62,11.3,11.42q4,4,7.94,8c1.68,1.71,3.39,3.4,5.1,5.1,4.11,4.07,8.36,8.28,12.28,12.68a13.71,13.71,0,0,1-7.43,22.95c-4.76,1-9.15-.45-13.07-4.4l-6-6.15c-4.19-4.28-8.53-8.71-12.89-12.95a8.34,8.34,0,0,0-8-2.42,7.49,7.49,0,0,0-5.17,5.62c-.7,2.71.13,5,2.78,7.69,1.94,2,3.9,3.92,5.86,5.88,4.53,4.5,9.22,9.16,13.59,14a13.75,13.75,0,0,1-7.21,23,10.6,10.6,0,0,1-2.36.26c-4.38,0-9.64-2.28-11.91-5.42a3.45,3.45,0,0,1-.23-3.62l.14-.39c3.08-9,2.9-17.31-.51-24.13s-10.23-12.21-19.56-15.25c-2.87-.93-2.68-2.85-2.54-4.24q0-.29.06-.6c1.13-16-7.91-28.45-23-31.72a10.56,10.56,0,0,0-3-.34,3.85,3.85,0,0,1-2.93-.7,4.8,4.8,0,0,1-1.24-3.45,27.89,27.89,0,0,0-29.39-26.23c-4.34.22-6.68-.53-8.29-5.44a27.91,27.91,0,0,0-17.74-17.95,28.28,28.28,0,0,0-25.32,3.58c-3.66,2.52-5.37,1.53-7.44-1.33-9.06-12.5-18.4-25.11-27.76-37.47-1.94-2.55-1.88-4.35.21-6.89,26.29-31.87,52-63.22,73.65-89.68,1.37-1.68,2.83-3.12,5.58-2.34,5.18,1.48,10.32,2.9,15.76,4.41l7.75,2.15-10,17.73c-7.51,13.28-14.91,26.36-22.34,39.42-6.13,10.77-6,21.25.25,31.16a28.33,28.33,0,0,0,24.45,13.3,29.07,29.07,0,0,0,24.67-14.31c6.7-11.14,13.1-22.72,19.28-33.92l.2-.36c1.35-2.45,2.89-3.9,6.47-3.58,8.62.75,17.42,1.26,25.93,1.74l4.23.25a10,10,0,0,1,7,3c34.59,34.7,66.3,66.41,96.95,97C346.66,293.44,348.13,298.52,346.55,304.1Zm21.25-76.86c-6.33,12.71-12.72,26.06-19,39.69-.68,1.47-1.48,2.86-2.77,3.09a2.43,2.43,0,0,1-.38,0c-1.14,0-2.17-.93-3.36-2.13q-18.82-18.9-37.69-37.76c-16.68-16.68-33.92-33.93-50.82-50.95a16.4,16.4,0,0,0-11.57-5.06c-13.24-.7-26.79-1.61-40.27-2.7-4.63-.38-7.6,1.26-9.93,5.48-5.9,10.67-12,21.44-18,31.85l-4.33,7.63c-3.18,5.59-8.1,8.15-14.26,7.39-5.48-.67-9.35-3.87-11.2-9.26a13.09,13.09,0,0,1,.94-11l10.19-18q10.29-18.21,20.55-36.43a6.28,6.28,0,0,1,4.25-3q27.77-8,55.53-16c4.19-1.21,8.44-1.08,12.56-.94,1.85,0,3.77.11,5.64,0,3.12-.11,6.28-.08,9.35-.06,3.76,0,7.52,0,11.28,0,6.2,0,12.61,0,18.91-.06a6.75,6.75,0,0,1,6,3C321,159.61,344.07,189,366.85,217.65,369.41,220.88,369.67,223.48,367.8,227.24Zm42.67-42.6c-.25.14-.51.26-.76.39a6,6,0,0,0-1.26.72l-4.08,3.5c-7.13,6.1-14.5,12.42-21.65,18.74a3.71,3.71,0,0,1-2.37,1.13h-.24a3.51,3.51,0,0,1-2.31-1.76l-.34-.45q-17.68-22.53-35.4-45.05l-4-5.13-5.94-7.57c-5.69-7.26-11.58-14.77-17.46-22.08a3.3,3.3,0,0,1,1-5.84c8.92-5.52,18.3-11.48,28.65-18.21,2.09-1.36,3.77-1.7,5.7.82,15.17,19.8,30.64,39.9,45.6,59.33l13.51,17.55c.27.35.52.71.9,1.26.22.33.49.71.84,1.21l.64.91Z"/><path class="cls-2" d="M147.79,78.48l15.32,15.31c1.85,1.86,3.67,2.8,5.11,2.69h.06c3.79-.08,6.11-1.45,7.52-4.43s.9-5.94-1.65-8.5c-18-18.1-37.43-37.57-57.32-57.31a8,8,0,0,0-5.57-2.56h-.05a7.55,7.55,0,0,0-5.3,2.45c-3.12,3.19-2.92,7.48.5,10.92C120.18,50.88,134.22,64.91,147.79,78.48Z"/><path class="cls-2" d="M260.45,96.42h.1c2.68.19,4.56-1.7,6.55-3.69L296.79,63,321.86,38a19,19,0,0,0,2-2.24,7.48,7.48,0,0,0,1.17-6.58,7.73,7.73,0,0,0-4.83-4.91c-3.64-1.34-6.24.24-9,3L306,32.48q-25,25-50,50a15.94,15.94,0,0,0-2.26,2.72,6.72,6.72,0,0,0-.13,7.34A7,7,0,0,0,260.45,96.42Z"/><path class="cls-2" d="M207.14,64.85h0q0,3.7,0,7.41c0,5.4,0,11,0,16.49.05,4.59,2.89,7.59,7.24,7.66a7.35,7.35,0,0,0,5.39-2A7.89,7.89,0,0,0,222,88.68c.07-14.85.07-30.22,0-47a8.31,8.31,0,0,0-2.29-5.95,7.1,7.1,0,0,0-5.11-2h-.05c-4.3,0-7.34,3.35-7.38,8.08-.05,5.52,0,11.15,0,16.59C207.13,60.54,207.14,62.7,207.14,64.85Z"/><path class="cls-2" d="M214.57,14.81h0a7.37,7.37,0,0,0,5.31-2.15A7.39,7.39,0,0,0,222,7.27,7.34,7.34,0,0,0,219.79,2a7.49,7.49,0,0,0-5.26-2h-.2a7.3,7.3,0,0,0-5.18,2.21,7.61,7.61,0,0,0-2,5.53A7.15,7.15,0,0,0,214.57,14.81Z"/></g></g></svg>