<svg xmlns="http://www.w3.org/2000/svg" viewBox="0 0 371.37 371.45"><defs><style>.cls-1{fill:#07b1a9;}</style></defs><g id="Layer_2" data-name="Layer 2"><g id="Layer_1-2" data-name="Layer 1"><path class="cls-1" d="M46.55,254.61c-3.89,4.71-7.2,8.76-10.56,12.75-3.5,4.17-6.9,4.32-10.76.39q-11-11.21-21.94-22.51c-4.25-4.38-4.37-6.6-.46-11.28q36.82-44.07,73.68-88.12,19.32-23.1,38.66-46.19c4-4.76,5.35-5,10.93-2.6l44.1,19.27c1.11.48,2.24.93,4.06,1.68-1.51-6.66-2.87-12.67-4.24-18.69s-.14-8,5.65-9.52q21.09-5.57,42.21-11c6.75-1.75,8.92-.32,10.54,6.59,4.65,19.85,9.42,39.67,13.92,59.56.62,2.74,2,3.94,4.3,4.94,13.25,5.7,26.45,11.5,39.67,17.28,5.7,2.49,6.68,4.68,4.8,10.53q-4.73,14.74-9.49,29.47c-1.81,5.58-4.91,7-10.26,4.68-4.45-1.94-8.87-3.94-13.31-5.9a11.37,11.37,0,0,0-1.32-.25c2.4,10.3,4.75,20.36,7.27,31.15,5.09-5.11,10.11-9.58,14.44-14.65s9-7.18,15.61-6.53c4.93.49,10.52,1.36,14.79-.42s7.25-6.63,10.8-10.14c1.77-1.76,3.48-3.58,5.31-5.28,3.11-2.88,6.19-2.92,9.24.08q11.6,11.43,23,23c3.29,3.33,3.23,6.37-.11,9.78-5.42,5.52-10.87,11-16.43,16.39-1.72,1.66-2.24,2.89-1.12,5.36a23.74,23.74,0,0,1-31.2,31.22c-2.45-1.11-3.67-.63-5.36,1.1-6.7,6.88-13.56,13.61-20.33,20.42-.81.81-2.17,1.45-1.3,3.07.74,1.37,1.9.86,3,.81,6.76-.34,12.44-3.25,17.63-7.34a44.71,44.71,0,0,1,22-9.51,40.91,40.91,0,0,1,27.9,5.92c5.49,3.41,10.47,7.64,15.75,11.38,1.45,1,1.15,1.74.34,3-5.47,8.36-5.42,8.34-13.4,2.45-4.3-3.18-8.31-6.86-13.41-8.77-11.32-4.23-21.79-2.61-31.29,4.83-6.27,4.91-13,8.63-21,9.95a41.36,41.36,0,0,1-30-6.13c-1.67-1.07-3.27-2.27-4.87-3.47-13.4-10.08-27.23-10.08-40.5.1a45.5,45.5,0,0,1-20.89,9.34c-12.84,2-24.16-1.48-34.28-9.33-4.7-3.65-9.78-6.37-15.77-7.2-9.3-1.3-17.48,1.22-24.75,7.06a44,44,0,0,1-20.84,9.45c-12.82,2.06-24.18-1.36-34.31-9.21-5.23-4-10.87-6.91-17.59-7.48a29.83,29.83,0,0,0-20.49,5.4c-4.26,3-8.45,6.18-12.58,9.4-1.62,1.26-2.51,1.23-3.84-.5-5.83-7.56-5.85-7.45,1.75-13.24,7-5.3,13.93-10.39,22.76-12.35,7.87-1.75,15.52-1.1,23.67,1.24C53,282.14,49.88,268.79,46.55,254.61Zm221.67,53.21c-1.52-6.39-3-12.52-4.43-18.66Q253.59,245.6,243.4,202c-.43-1.84-1-3.31-3.07-4.22q-52.71-23.4-105.3-47c-1.88-.84-2.86-.38-4,1.09-2.92,3.73-6,7.36-9,11q-32,38.83-64,77.65a5.05,5.05,0,0,0-1.14,5Q63.62,273.49,70,301.49a7.32,7.32,0,0,0,3.8,5.12c11.34,6.43,22.52,6.25,33.52-.77,2.83-1.8,5.33-4.18,8.28-5.75,2.39-1.27,2.66-2.66,2.08-5-2.19-8.81-4.17-17.66-6.34-26.48-2.29-9.32-4.68-18.64-3.18-28.37,3.48-22.55,22.59-39.87,45-40.88a47.93,47.93,0,0,1,49.09,36.72c4.63,19.47,9,39,13.39,58.53.42,1.84.53,2.91,3,2,15.74-5.65,30.09-2.77,43.17,7.41A18.72,18.72,0,0,0,268.22,307.82Zm10-130c0-1.67-1.59-1.59-2.59-2Q201,143,126.3,110.31c-2.28-1-3.62-.88-5.32,1.19-12.93,15.67-26,31.22-39.06,46.81Q49.18,197.47,16.37,236.6c-1.81,2.15-1.62,3.26.31,5.07a130.24,130.24,0,0,1,10.43,10.72c2.35,2.76,3.63,2.39,5.79-.25q45.87-56,91.92-111.81c3.69-4.48,5.33-4.88,10.59-2.54l126.73,56.5c3.07,1.37,6.91,4.44,9,3.54,2.59-1.09,2.49-6,3.64-9.26C276.08,185.06,277.09,181.47,278.23,177.82Zm-119.93,34c-4.91-.37-4.92-.37-3.83,4.24,7.17,30.34,14.4,60.67,21.42,91a4.14,4.14,0,0,0,3.9,3.63c8.45,1.33,16.33,0,23.51-4.91,1.55-1,2-1.95,1.54-3.94-4.78-20.57-9.24-41.21-14.09-61.75C186.85,223.58,174.48,213,158.3,211.77Zm3.22,89c.12-.3.23-.43.2-.53Q152,258.61,142.31,216.9c-.46-2-1.29-2.17-3.12-1.32C126,221.73,117.27,238.65,120.32,253c2.74,12.87,5.91,25.65,8.8,38.49.52,2.34,1.4,3.44,4,2.79A25.92,25.92,0,0,1,142,294,45.35,45.35,0,0,1,161.52,300.82Zm116-6.61c1.62-.34,2.2-1.38,3-2.14,5.13-5.09,10.21-10.24,15.36-15.31,1.11-1.1.48-1.95.05-3-4.24-10.22-2.53-20,4.73-27.21s17.07-8.86,26.89-4.6c1.66.73,2.61.59,3.84-.69,3.8-4,7.67-7.85,11.64-11.63,1.52-1.44,1.63-2.34.05-3.84q-6-5.66-11.63-11.63c-1.5-1.58-2.41-1.46-3.84.05-3.52,3.71-7.24,7.22-10.79,10.89a8,8,0,0,1-6.29,2.63c-6-.13-12,0-17.95-.06A4.58,4.58,0,0,0,288.9,229c-6.73,6.84-13.54,13.6-20.35,20.36a2.82,2.82,0,0,0-1,3C270.92,266.19,274.2,280.07,277.55,294.21ZM229.21,142.14c-3.93-16.83-7.66-32.76-11.38-48.7-.33-1.43-.89-1.93-2.58-1.47-10.07,2.71-20.19,5.24-30.28,7.85-1.45.37-2.3.81-1.77,2.8,1.73,6.48,3.18,13,4.67,19.57.26,1.13.46,2.09,1.69,2.63C202.53,130.46,215.48,136.13,229.21,142.14Zm100.3,121.6a12,12,0,1,0-12.05,11.84A12.29,12.29,0,0,0,329.51,263.74Z"/><path class="cls-1" d="M41.61,341.57a46,46,0,0,1,27.61,9.59c14.27,10.81,27.29,10.76,41.68,0,17.06-12.78,37.24-12.73,54.28.15,14,10.61,27.23,10.6,41.38,0,17.21-12.94,37.38-12.87,54.58.17,13.75,10.42,27.2,10.4,41.09-.06,17.25-13,37.4-13,54.58-.06,3.48,2.63,6.88,5.38,10.47,7.85,1.73,1.2,1.48,2,.45,3.51-5.52,7.88-5.49,7.9-13.18,2.15-1.9-1.41-3.78-2.85-5.69-4.25-12.52-9.22-26.63-9.17-39,.32-6.32,4.84-13,8.62-21,9.94a41.35,41.35,0,0,1-30-6.11c-1.68-1.07-3.28-2.27-4.87-3.47-13.41-10.09-27.25-10.1-40.5.07a45.56,45.56,0,0,1-20.89,9.35c-12.83,2-24.16-1.46-34.28-9.31-4.7-3.65-9.78-6.38-15.76-7.21-9.31-1.31-17.49,1.21-24.76,7a43.92,43.92,0,0,1-20.84,9.46c-12.81,2.06-24.18-1.33-34.31-9.18-5.23-4-10.86-6.93-17.59-7.5a29.76,29.76,0,0,0-20.49,5.38c-4.26,3-8.45,6.18-12.58,9.4-1.6,1.24-2.67,1.45-3.83-.49-1.59-2.66-5.34-5-4.9-7.57.37-2.18,4.27-3.78,6.63-5.61,6.9-5.37,13.89-10.57,22.77-12.31A53.58,53.58,0,0,1,41.61,341.57Z"/><path class="cls-1" d="M60.27,0a41.87,41.87,0,0,1,40.78,33.15c.5,2.4,1.36,2.88,3.59,3,16,1.07,27.87,15.07,27.26,32.06-.53,14.75-14,27.55-29.09,27.73-2.89,0-5.9.16-8.47-1-3.7-1.68-6.26-.57-9.41,1.54-11.82,7.86-27.42,7.34-39.36-1-2-1.4-3.57-1.89-6.06-1.1A29.87,29.87,0,0,1,15.66,39.93a5.51,5.51,0,0,0,2.94-4.28C22.41,16.38,34.53,4.22,53.58.56A62,62,0,0,1,60.27,0Zm-.4,12.18A29.85,29.85,0,0,0,30.28,40.94c-.19,4.59-1.87,7-6.13,8.47a17.53,17.53,0,0,0-10.29,24,17.88,17.88,0,0,0,24.6,8.34c6.11-3.15,6.36-3.11,11.61,1.77a23.36,23.36,0,0,0,31.59.32c5.68-5.13,5.68-5.13,12.54-1.83a17.8,17.8,0,1,0,4.86-33.51c-6.31,1.16-8.75-.78-9.09-7.23C89.1,24.76,75.93,12,59.87,12.18Z"/><path class="cls-1" d="M311.44.15A41.46,41.46,0,0,1,352.8,34.61a7.37,7.37,0,0,0,3.85,5.74,29.84,29.84,0,0,1-24.4,54.07,6,6,0,0,0-6.08.93c-12.67,9.06-28.58,9-41.5-.21a5.34,5.34,0,0,0-5.4-.79c-12,3.77-22.78,1.29-31.44-7.89-8.44-8.95-10.51-19.72-6.11-31.17,4.47-11.6,13.38-17.95,25.78-19.12,2-.19,2.62-.82,3-2.78A41.61,41.61,0,0,1,311.44.15ZM251.49,66c-.06,14,14.5,22.47,26.83,15.66,5.35-3,6.39-2.83,10.75,1.38a23.23,23.23,0,0,0,32.95,0c4.4-4.24,5.41-4.38,10.75-1.53a17.89,17.89,0,0,0,25-8c4.44-9.65-.21-20.61-10.54-24.24-4-1.39-5.67-3.57-5.83-7.88a29.9,29.9,0,0,0-29.95-29.22c-16,.09-29,12.78-29.77,29.11-.31,6.44-2.79,8.42-9.08,7.25A17.67,17.67,0,0,0,251.49,66Z"/><path class="cls-1" d="M191.8,24.22c0,3.23-.06,6.47,0,9.7,0,1.58-.48,2.07-2.11,2.2-9.89.74-9.89.79-9.88-9,0-4.23.06-8.46,0-12.69,0-1.74.5-2.29,2.3-2.39,9.7-.54,9.69-.6,9.69,9.15Z"/><path class="cls-1" d="M149.89,42.11V38.76c0-9.62.33-9.86,10.14-8.71,1.5.18,1.85.74,1.84,2.08,0,6.59-.05,13.18,0,19.78,0,1.6-.53,2.05-2.13,2.17-9.87.72-9.87.77-9.87-9Z"/><path class="cls-1" d="M221.74,42.2c0,3.23-.06,6.47,0,9.7,0,1.6-.52,2.06-2.13,2.18-9.87.73-9.86.77-9.86-9,0-4.23.07-8.46,0-12.68,0-1.77.54-2.28,2.32-2.37,9.68-.53,9.67-.59,9.67,9.16Z"/><path class="cls-1" d="M30.12,120.21v3c0,9.69-.23,9.85-10.11,8.72-1.48-.16-1.88-.68-1.87-2,0-6.59.05-13.19,0-19.78,0-1.57.46-2.08,2.1-2.2,9.89-.76,9.89-.81,9.89,8.95Z"/><path class="cls-1" d="M269.65,119.8c0,1.25.07,2.5,0,3.73-.19,2.69,1.21,6.83-.6,7.74-2.69,1.36-6.5.5-9.83.61-1.45,0-1.53-.89-1.53-2q0-10.06,0-20.15c0-1.2.34-1.92,1.68-1.81a10.46,10.46,0,0,0,1.12,0c9.17-.26,9.17-.26,9.17,8.88Z"/><path class="cls-1" d="M353.49,119.94c0,3-.11,6,0,9,.11,2.12-.31,3-2.78,3.06-9.22.11-9.22.21-9.22-8.91,0-4.23.16-8.46,0-12.68-.16-3.3,2.27-2.79,3.69-2.31,2.74.92,7.08-2.89,8.2,2.21C354,113.35,353.48,116.71,353.49,119.94Z"/><path class="cls-1" d="M60.06,131.86c0,3.24-.08,6.47,0,9.7.06,1.8-.6,2.25-2.35,2.35-9.65.5-9.65.56-9.65-9.2,0-4.1.1-8.21,0-12.31-.06-2,.62-2.47,2.55-2.53,9.46-.32,9.46-.38,9.46,9Z"/><path class="cls-1" d="M299.59,131.94c0,3-.11,6,0,9,.11,2.15-.36,3-2.81,3-9.2.1-9.2.21-9.2-8.92,0-4.11.09-8.21,0-12.31-.06-2,.38-2.79,2.62-2.84,9.38-.24,9.38-.33,9.38,9.1Z"/><path class="cls-1" d="M329.53,143.73a60.08,60.08,0,0,0,.07,7.83c.5,3.8-1.07,4.48-4.52,4.36-7.51-.26-7.51-.08-7.51-7.63,0-4.48.09-9-.05-13.43-.06-2.15.38-3,2.82-3,9.2-.1,9.19-.2,9.19,8.93Z"/><path class="cls-1" d="M353.5,161.88v-3.36c0-9.62.32-9.85,10.13-8.7,1.51.18,1.85.74,1.85,2.07,0,6.6-.06,13.19,0,19.78,0,1.6-.52,2.06-2.13,2.18-9.87.72-9.86.76-9.86-9Z"/></g></g></svg>