<svg xmlns="http://www.w3.org/2000/svg" viewBox="0 0 368.45 368.5"><defs><style>.cls-1{fill:#07b1a9;}</style></defs><g id="Layer_2" data-name="Layer 2"><g id="Layer_1-2" data-name="Layer 1"><path class="cls-1" d="M191.43,0c2.09,1.28,4.55,1.18,6.81,1.85C219.55,8.12,233.89,26,235.81,49a6.25,6.25,0,0,0,2.54,4.75c21.2,17.59,31.77,40.25,32.17,67.73.05,2.75.07,5.51,0,8.27-.12,4.89.47,9.21,3.24,13.8,7.4,12.26-1.58,27.46-16.63,28.72-3.53.3-4.25,1.33-4.79,4.72-3.21,20.34-13.49,36.34-30.73,47.7-2.16,1.42-3.11,2.81-3,5.43.2,5.75.1,11.51.06,17.27s2.79,9.45,7.92,11.65q25.21,10.79,50.43,21.6c14.91,6.41,22.32,17.79,22.33,34,0,15.71,0,31.42,0,47.13,0,2.75-.7,5-3.34,6.21a5.24,5.24,0,0,1-7.49-4.61c-.22-3.34-.1-6.71-.1-10.07,0-12.71-.06-25.42,0-38.13.05-11.8-5-20.09-16.11-24.63-10.05-4.1-20-8.54-30-12.86-.86,1.12-.57,2.22-.57,3.22,0,13.07.05,26.14-.07,39.21,0,2.48.63,3.64,3.08,4.6,9.65,3.81,15.66,14.32,14,23.88-1.88,11.07-10.42,19.27-20.62,19.8-11.5.6-20.83-5.89-23.91-16.62-3.2-11.15,2.54-22.66,13.61-27.23,1.41-.58,2.84-.81,2.82-3-.11-12.83-.06-25.66-.08-38.49a9.05,9.05,0,0,0-.4-1.7L210,294.78c-4.88,3.26-9.83,6.41-14.64,9.78-7.49,5.24-14.74,5.14-22.28,0-10.46-7.19-21.11-14.11-31.69-21.14-1-.64-2-1.21-3.51-2.15V303.6c0,7.89,0,7.89,7.88,7.89,3.12,0,6.23-.05,9.35,0,9.34.18,16.22,5.84,17,15.09a128.4,128.4,0,0,1-.17,28,16.39,16.39,0,0,1-16.35,13.84c-3.27-.11-5.81-2.27-5.7-5.23s1.76-5,5-5.57c4.94-.79,6.38-2.49,6.41-7.36,0-7,0-13.91,0-20.87,0-4.86-2.17-7-7-7q-21.94-.06-43.89,0c-4.83,0-7.13,2.13-7.22,6.95-.13,7.07-.11,14.15,0,21.22.07,4.55,1.78,6.3,6.43,7.11,3.41.6,5.22,2.73,5,5.87s-2.47,4.89-5.93,4.91c-8.54.06-16.18-7.35-16.41-16.31-.22-8.14-.24-16.31,0-24.46a16.62,16.62,0,0,1,16.19-16.09c5.15-.16,10.31-.15,15.47,0,2.17.05,2.91-.58,2.88-2.82-.11-9.47-.09-18.95,0-28.42,0-2.15-.36-2.75-2.54-1.8C114.17,282.9,104,287,94,291.57c-9.48,4.32-13.83,12.17-13.88,22.43-.07,15.35,0,30.7,0,46.05a30.62,30.62,0,0,1-.11,3.59,5,5,0,0,1-5,4.75c-3.12.22-4.95-1.51-5.71-4.37a12.78,12.78,0,0,1-.14-3.22c0-15.59-.07-31.18,0-46.77.08-15.78,7.48-26.91,21.89-33.2,16.32-7.13,32.74-14.05,49.13-21,7.79-3.33,9.63-6,9.63-14.48,0-5.39-.06-10.79,0-16.18a3.91,3.91,0,0,0-2-3.79c-18.39-11.87-29.25-28.56-31.91-50.38-.26-2.09-1.25-2.37-3-2.53C102.64,171.5,95.39,166.16,93,158c-3.66-12.54,5.61-25,19-25.45,3-.09,6,0,9-.07a5.55,5.55,0,0,0,5.72-4.92c1.85-9.67,4-11.72,13.57-13.22C171,109.5,199.72,99.19,226,82.43c2.64-1.69,5.14-2.67,7.86-.4s2.67,6.23-.5,8.64c-2.35,1.78-4.91,3.28-7.68,5.11,7.57,4.74,12.74,10.91,14.92,19.33a42.1,42.1,0,0,1,1.1,10.68c0,4.49,2.12,6.59,6.55,6.71,2.4.06,4.86-.33,7.18.09,3.81.69,4.07-1,4.16-4.21.45-16.89-2.34-32.91-11.53-47.42A75.27,75.27,0,0,0,110.28,106.6c-.51,2.58-.67,5.22-1,7.84-.45,4-2.78,6.22-6.24,5.88s-5.1-3-4.7-7.09c2.35-24.51,13.2-44.45,32.26-60a4.72,4.72,0,0,0,2-3.55C135,23.32,150.31,6.11,176.19.59c.31-.07.57-.39.85-.59Zm-7.05,224.78a57.8,57.8,0,0,0,52.89-34.5A60.06,60.06,0,0,0,242.18,168c.18-4.89,2.16-6.58,7-6.66,2,0,4.08,0,6.12,0,6-.1,9.73-3.39,9.87-8.6s-3.73-8.77-9.54-9c-3.47-.17-6.95.13-10.42-.39A16.61,16.61,0,0,1,231,128.82c-.32-2.61-.29-5.26-.49-7.89A18.52,18.52,0,0,0,221.14,106c-4.4-2.69-8.74-3.25-13.85-.79A216.57,216.57,0,0,1,141,125.14c-2.44.32-3.13,1.43-3.44,3.64-1.15,8.11-6.79,13.65-14.95,14.55-3.56.39-7.18.18-10.77.39a8.58,8.58,0,0,0-8.5,8.47,8.82,8.82,0,0,0,8.41,9c2.86.21,5.75,0,8.62.15,3.62.18,5.43,1.94,5.9,5.52.16,1.19.19,2.39.26,3.59A57.57,57.57,0,0,0,184.38,224.78Zm41.68,46.09c-1.45-.68-2.5-1.23-3.6-1.68-9-3.77-14.08-10.53-14.8-20.26-.35-4.65-.2-9.34-.11-14,0-2.19-.34-3-2.8-2.27a66.91,66.91,0,0,1-41.3-.05c-1.92-.61-2.57-.17-2.52,1.87.11,4.08.09,8.15,0,12.23-.19,10.62-5,18.23-14.85,22.49-1.11.48-2.44.68-3.31,1.9l35,23.37c.89.6,1.79,1.21,2.69,1.79a6.53,6.53,0,0,0,7.72-.15q7.15-4.8,14.35-9.57Zm-2.53-227c.85-15.61-20-33.08-39.29-33.08s-40.1,17.42-39.3,33.05Q184.23,25.14,223.53,43.89Zm.91,301.71a11.83,11.83,0,0,0,11.67,12,11.87,11.87,0,0,0,.24-23.74A11.74,11.74,0,0,0,224.44,345.6Z"/><path class="cls-1" d="M368.45,324.53c-1.73,2.55-3.84,4.45-7.17,3.25s-3.67-3.93-3.65-7c.08-13.2,0-26.39,0-39.58,0-5.21-1.13-6.8-6-8.45-3.17-1.08-6.4-2-9.53-3.17-1.89-.72-2.55-.44-2.53,1.69.07,7.19.14,14.39,0,21.58-.06,2.32,1.45,2.67,2.87,3.48a17.05,17.05,0,1,1-16.5.1c2.26-1.2,3-2.49,2.92-4.93-.15-6.81-.05-13.63-.05-20.86-3.45,1.66-6,4-8.68,6-7.12,5.27-10.92,5.29-18-.08-2.39-1.8-4.83-3.54-7.18-5.39-3.38-2.66-6.4-5.47-11.42-3-2.66,1.32-5.77-.92-6.38-3.64-.7-3.12.49-5.38,3.41-6.71,2.56-1.15,6.89-.8,7.49-3.3,1-4.31.38-9,.3-13.59,0-1.17-1.28-1.64-2.09-2.32-9.48-7.83-14.73-17.79-15.05-30.16q-.24-9-.05-18c.33-15.91,10.43-27.47,26.25-28.86a136.23,136.23,0,0,1,29.8.29,27.89,27.89,0,0,1,23.93,27.27c0,8.25.78,16.55-.54,24.77a38.33,38.33,0,0,1-14.39,24.49,5.19,5.19,0,0,0-2.33,4.8,72.93,72.93,0,0,1,0,9.35c-.14,2.09.69,2.94,2.55,3.52,5.58,1.76,11.05,3.92,16.69,5.45,7.63,2.07,13,6.29,15.37,14Zm-57.35-152v0c-4.08,0-8.15-.11-12.22,0a17.21,17.21,0,0,0-16.8,17.12q-.12,9.17,0,18.33c.18,14.62,12,27.18,26.42,28.17,15.8,1.09,29-9.19,31.29-24.34,1.14-7.63.85-15.33.38-23-.61-9.87-8-16.23-17.93-16.37C318.53,172.46,314.81,172.51,311.1,172.51Zm12.6,86.71c-1.06-3.73-.57-7.58-.62-11.38,0-1.72-.75-2.08-2.19-1.71a37.42,37.42,0,0,1-19.48,0c-1.5-.4-2.08,0-2.12,1.69-.07,3.68.59,7.41-.64,11-.38,1.13.37,1.76,1.17,2.35,3.16,2.36,6.36,4.67,9.46,7.11a2.58,2.58,0,0,0,3.75,0c3.08-2.46,6.29-4.75,9.44-7.12C323.12,260.67,324,260.29,323.7,259.22Zm10.64,45.87a6.18,6.18,0,0,0-6.19,6.07,6.08,6.08,0,1,0,6.19-6.07Z"/><path class="cls-1" d="M45.43,274.54c0,6.34,0,11.93,0,17.52,0,1.57.62,2.21,2.13,2.08a2.17,2.17,0,0,1,.36,0c12.39.72,14.84,3.32,14.83,15.8,0,2.64.06,5.29-.09,7.92a11.16,11.16,0,0,1-9.54,10.18c-3.28.43-6-1.14-6.81-3.93s.6-5.53,3.91-6.64c1.34-.45,1.68-1,1.67-2.2,0-2.64-.09-5.28,0-7.92.06-1.64-.41-2.34-2.19-2.32q-9.72.12-19.43,0c-1.83,0-2.24.79-2.16,2.39a52.52,52.52,0,0,1,0,5.75c-.13,2.26-.07,3.92,2.8,4.74,2.55.73,3.43,3.29,2.86,5.91a5.15,5.15,0,0,1-5.1,4.26c-5.48.4-11.06-4.57-11.3-10.3-.18-4.43-.17-8.88,0-13.31.23-5.81,5-10,11.28-10.31,5.95-.25,5.95-.25,5.95-6.15V266.8c-6.93,2.33-13.52,4.4-20,6.78-3.13,1.14-3.79,4-3.78,7.09q0,20.5,0,41c0,3.94-2,6.31-5.21,6.42S.06,325.87.05,322.39c0-14.87-.1-29.74,0-44.61.07-6.73,5-12.64,12-15,6.44-2.2,12.88-4.46,19.4-6.4,2.55-.76,3.07-2,3.2-4.5.36-6.85-.46-12.37-6.47-17.53-7.89-6.77-11-16.61-10.91-27.17,0-7.32,0-14.63,0-21.95,0-12.65,7.62-22.35,20.14-23.38a212.46,212.46,0,0,1,41.28.2c10.19,1.14,18.15,10.13,18.43,20.4.31,11,1.2,22.07-.69,33-1.64,9.46-6.64,17.11-14.1,23.08A5.25,5.25,0,0,0,80,243.29a69.15,69.15,0,0,1,0,9c-.16,2.39.77,3.48,3,4a28.91,28.91,0,0,1,4.77,1.56c3.09,1.26,4.45,4,3.56,6.95-.78,2.62-3.91,4.79-6.55,3.43-4.73-2.44-7.59.11-10.79,2.68-2.71,2.18-5.55,4.18-8.34,6.26-6.18,4.61-10.35,4.62-16.6,0Zm11.85-38.2c14.87,0,27.65-11.4,29-26.05.15-1.62.84-3.56-2.2-3.82A72.3,72.3,0,0,1,47.64,192.7c-1.45-1-2.43-1.31-4-.07-4.51,3.57-9.17,7-13.81,10.35a4.08,4.08,0,0,0-1.76,3.63A29.36,29.36,0,0,0,57.28,236.34Zm-29-45.94C31.49,188.07,34.23,186,37,184c6.52-4.82,10.42-4.88,16.9-.27a68.36,68.36,0,0,0,30.06,11.87c1.87.28,2.61-.15,2.52-2.15-.13-3.11,0-6.23,0-9.35-.13-6.49-4.85-11.47-11.29-11.55-11.87-.13-23.74,0-35.61,0A10.75,10.75,0,0,0,31,176.59C27.73,180.47,27.9,185.08,28.32,190.4Zm41.46,68.33c-1.19-3.37-.57-7.11-.59-10.79,0-2-.76-2.2-2.35-1.77a36.79,36.79,0,0,1-19.12,0c-1.68-.44-2.37.09-2.33,1.92.07,3.1.41,6.32-.27,9.28-.56,2.43.14,3.47,1.92,4.6,3.59,2.29,6.75,7.32,10.43,6.81,4-.55,7.4-4.84,11.07-7.5C69.32,260.7,70.15,260.15,69.78,258.73Z"/><path class="cls-1" d="M184.17,195.55c-7-.28-13.73-1.88-19.6-6.29-3.39-2.55-4.07-5.5-2-8.27,2-2.6,4.91-2.83,8.22-.72q13.44,8.59,26.89,0c3.27-2.1,6.28-1.84,8.21.78s1.4,5.61-1.76,8.05C198.35,193.58,191.58,195.23,184.17,195.55Z"/><path class="cls-1" d="M149.82,152.5c0-5.51,1.89-8.39,5.54-8.42s5.6,2.88,5.6,8.37-1.82,8.36-5.55,8.37S149.82,158,149.82,152.5Z"/><path class="cls-1" d="M218.6,152.86a11.23,11.23,0,0,1-.39,4.23,5.18,5.18,0,0,1-5.51,3.67,5,5,0,0,1-4.84-4,21.09,21.09,0,0,1-.2-7.47c.35-3.15,2.33-5.1,5.45-5.08s5,2.05,5.46,5.13A23.62,23.62,0,0,1,218.6,152.86Z"/></g></g></svg>