<svg xmlns="http://www.w3.org/2000/svg" viewBox="0 0 397.35 363.54"><defs><style>.cls-1{fill:none;}.cls-2{fill:#07b1a9;}</style></defs><g id="Layer_2" data-name="Layer 2"><g id="Layer_1-2" data-name="Layer 1"><path class="cls-1" d="M264.41,77.83,211.14,25.51c-7.9-7.76-17-7.76-24.86,0L148.36,62.78C118.11,92.51,86.82,123.26,56,153.47a9.28,9.28,0,0,0-3,7.22l.06,32.44c.07,39.2.15,79.73-.14,119.59a30.71,30.71,0,0,0,9,22.19,31.43,31.43,0,0,0,22.06,9h.36c27.15-.31,54.76-.25,81.46-.19,11,0,21.94.05,32.94.05h33.4q40.71,0,81.42,0c18.4,0,30.78-12.33,30.81-30.66q.06-43,0-86.08,0-33.37,0-66.74a8.54,8.54,0,0,0-2.7-6.58Q303,115.81,264.41,77.83Zm17,152.84c0,7.6-3.6,11.16-11.3,11.19l-3.09,0c-9.64,0-19.61.09-29.4-.08a4.85,4.85,0,0,0-5.73,5.75c.15,9.11.11,18.38.08,27.34l0,5.54c0,7.12-3.86,11.08-10.81,11.15-14.92.16-30.07.16-45,0-7-.07-10.67-3.94-10.69-11.17l0-5.47c0-9-.07-18.28.08-27.41a5.93,5.93,0,0,0-1.32-4.4,5.69,5.69,0,0,0-4.18-1.32h-.28c-9.82.15-19.82.1-29.48.07l-3,0c-7.93,0-11.48-3.58-11.52-11.52-.06-12.81-.06-26.5,0-43.09,0-8.26,3.71-11.95,12-12h7.52c8.19,0,16.66,0,25,.07a5.5,5.5,0,0,0,4.07-1.26,5.42,5.42,0,0,0,1.25-4.05c-.11-9.57-.08-19.3-.06-28.72v-4.17c0-7.69,3.57-11.28,11.18-11.29h29c5.36,0,10.73,0,16.1,0,6.21,0,10.25,4.08,10.29,10.32.07,10.16.12,22,0,33.66a5.62,5.62,0,0,0,1.28,4.23,5.53,5.53,0,0,0,4.23,1.27c9.13-.12,18.43-.1,27.42-.07l5.46,0c7.26,0,11.11,3.85,11.12,11.09C281.42,200.2,281.42,214.68,281.38,230.67Z"/><path class="cls-1" d="M260.67,196.29a5.72,5.72,0,0,0-4.29-1.34c-11,.15-22.09.1-32.47.05-8.12-.05-11.6-3.57-11.62-11.77,0-10-.07-21.32,0-32.49a5.57,5.57,0,0,0-1.3-4.26,5.25,5.25,0,0,0-4-1.18c-5.4.2-11,.2-17.09,0a5,5,0,0,0-3.86,1.15,5.18,5.18,0,0,0-1.23,4c.08,8.16.07,16.46.06,24.49,0,2.67,0,5.33,0,8,0,8.55-3.51,12.05-12.08,12.08-10.52,0-21.4.08-32.09,0a5.49,5.49,0,0,0-4.13,1.31,5.42,5.42,0,0,0-1.21,4.08c.19,5.67.19,11.29,0,16.7a5.29,5.29,0,0,0,1.19,4,5.44,5.44,0,0,0,4.17,1.29c10.13-.1,20.95-.11,34.05,0,6,0,10,4.11,10.09,10.13,0,3.69,0,7.44,0,11.07,0,1.79,0,3.58,0,5.36s0,3.41,0,5.12c0,4.22,0,8.58-.06,12.86a5,5,0,0,0,1.18,3.8,4.89,4.89,0,0,0,3.71,1.15c6.75-.17,11.9-.16,16.71,0h.6a5.3,5.3,0,0,0,3.89-1.27,5.86,5.86,0,0,0,1.37-4.44c-.2-12.13-.12-24.14,0-33.24.06-6.81,3.9-10.57,10.8-10.58h3.13c10,0,20.36-.05,30.53.05a5.25,5.25,0,0,0,4-1.24,5.18,5.18,0,0,0,1.15-3.85c-.2-5.67-.2-11.29,0-16.7A5.59,5.59,0,0,0,260.67,196.29Z"/><path class="cls-2" d="M390.69,174.24l-113-111L225.48,12c-16.27-16-37.31-16-53.59,0L81.32,101,47.87,133.88q-22,21.6-44,43.17C.4,180.46-.7,183.87.42,187.78a9.47,9.47,0,0,0,6.64,6.73,10.34,10.34,0,0,0,9.85-2.63c2.78-2.59,5.52-5.32,8.42-8.21l4.4-4.37,3.4-3.35v38.34q0,48.79,0,97.6a55.49,55.49,0,0,0,1,11.65c5.08,24.21,24.39,39.88,49.2,39.92,51.42.1,103.71.08,154.28.07h76.53c10.2,0,18.84-2.38,26.42-7.26,15.65-10.08,23.61-24.64,23.67-43.28.07-27.07.07-54.59.06-81.2q0-22.87,0-45.75c0-.29,0-.58,0-.87a7.06,7.06,0,0,1,1-4.84l1.31-1.93,2.67,2.5c.65.6,1.23,1.14,1.81,1.7l3.39,3.35c1.83,1.82,3.67,3.64,5.53,5.44,2.85,2.75,5.88,4,8.76,3.53,3.2-.5,6.24-3.09,8.62-7.31v-5.28C395.77,179.35,393.4,176.9,390.69,174.24Zm-46.32,52.81q0,43.05,0,86.08c0,18.33-12.41,30.65-30.81,30.66q-40.71,0-81.42,0H198.7c-11,0-22,0-32.94-.05-26.7-.06-54.31-.12-81.46.19h-.36a31.43,31.43,0,0,1-22.06-9,30.71,30.71,0,0,1-9-22.19c.29-39.86.21-80.39.14-119.59L53,160.69a9.28,9.28,0,0,1,3-7.22c30.8-30.21,62.09-61,92.34-90.69l37.92-37.27c7.9-7.76,17-7.76,24.86,0l53.27,52.32q38.63,38,77.28,75.9a8.54,8.54,0,0,1,2.7,6.58Q344.36,193.69,344.37,227.05Z"/><path class="cls-2" d="M270.26,175.3l-5.46,0c-9,0-18.29-.05-27.42.07a5.53,5.53,0,0,1-4.23-1.27,5.62,5.62,0,0,1-1.28-4.23c.16-11.69.11-23.5,0-33.66,0-6.24-4.08-10.29-10.29-10.32-5.37,0-10.74,0-16.1,0h-29c-7.61,0-11.16,3.6-11.18,11.29v4.17c0,9.42,0,19.15.06,28.72a5.42,5.42,0,0,1-1.25,4.05,5.5,5.5,0,0,1-4.07,1.26c-8.32-.1-16.79-.09-25-.07h-7.52c-8.24,0-11.92,3.7-12,12-.06,16.59-.06,30.28,0,43.09,0,7.94,3.59,11.49,11.52,11.52l3,0c9.66,0,19.66.08,29.48-.07H160a5.69,5.69,0,0,1,4.18,1.32,5.93,5.93,0,0,1,1.32,4.4c-.15,9.13-.12,18.42-.08,27.41l0,5.47c0,7.23,3.72,11.1,10.69,11.17,14.95.16,30.1.16,45,0,6.95-.07,10.79-4,10.81-11.15l0-5.54c0-9,.07-18.23-.08-27.34a4.85,4.85,0,0,1,5.73-5.75c9.79.17,19.76.12,29.4.08l3.09,0c7.7,0,11.29-3.59,11.3-11.19,0-16,0-30.47,0-44.28C281.37,179.15,277.52,175.32,270.26,175.3Zm-8.35,41.94a5.18,5.18,0,0,1-1.15,3.85,5.25,5.25,0,0,1-4,1.24c-10.17-.1-20.52-.07-30.53-.05h-3.13c-6.9,0-10.74,3.77-10.8,10.58-.08,9.1-.16,21.11,0,33.24a5.86,5.86,0,0,1-1.37,4.44,5.3,5.3,0,0,1-3.89,1.27h-.6c-4.81-.18-10-.19-16.71,0a4.89,4.89,0,0,1-3.71-1.15,5,5,0,0,1-1.18-3.8c.09-4.28.08-8.64.06-12.86,0-1.71,0-3.41,0-5.12s0-3.57,0-5.36c0-3.63,0-7.38,0-11.07-.07-6-4.12-10.09-10.09-10.13-13.1-.08-23.92-.07-34.05,0a5.44,5.44,0,0,1-4.17-1.29,5.29,5.29,0,0,1-1.19-4c.2-5.41.2-11,0-16.7a5.42,5.42,0,0,1,1.21-4.08,5.49,5.49,0,0,1,4.13-1.31c10.69.12,21.57.08,32.09,0,8.57,0,12.07-3.53,12.08-12.08,0-2.67,0-5.33,0-8,0-8,0-16.33-.06-24.49a5.18,5.18,0,0,1,1.23-4,5,5,0,0,1,3.86-1.15c6.1.19,11.69.19,17.09,0a5.25,5.25,0,0,1,4,1.18,5.57,5.57,0,0,1,1.3,4.26c-.1,11.17-.06,22.5,0,32.49,0,8.2,3.5,11.72,11.62,11.77,10.38.05,21.43.1,32.47-.05a5.72,5.72,0,0,1,4.29,1.34,5.59,5.59,0,0,1,1.24,4.25C261.71,206,261.71,211.57,261.91,217.24Z"/></g></g></svg>