<svg xmlns="http://www.w3.org/2000/svg" viewBox="0 0 303.83 354.1"><defs><style>.cls-1{fill:#07b1a9;}</style></defs><g id="Layer_2" data-name="Layer 2"><g id="Layer_1-2" data-name="Layer 1"><path class="cls-1" d="M303.63,162.13a44,44,0,0,0-18.1-31.52,43.55,43.55,0,0,0-35.19-7.45c-19.32,4.36-33.65,20.93-34.85,40.3a44,44,0,0,0,29.22,44.45c4.49,1.61,6.65,4.75,6.61,9.58-.08,9.78-.07,19.74-.07,29.37q0,8.59,0,17.18a79.71,79.71,0,0,1-1.35,16.22A71.29,71.29,0,0,1,169,336.45c-34-5.2-59.91-34.54-60.33-68.26-.2-15.88-.17-32-.13-47.61,0-8.8,0-17.6,0-26.39,0-5.89,3.76-7.64,6.92-8.07A96.68,96.68,0,0,0,156,171.19c27.57-18.17,43.12-43.45,46.24-75.13,1.68-17.14,1.33-34.83,1-51.93-.13-6.92-.28-14.08-.28-21.13s-5.08-8.75-9.33-8.78c-7.82-.05-16.14-.09-24.43,0H169c-6.15,0-8-4-8.41-7.37C160,2.55,156.44-.22,151.72.05A8,8,0,0,0,144.27,8c-.11,9.31-.11,19.08,0,29a8.08,8.08,0,0,0,6.36,7.76,8.65,8.65,0,0,0,9.59-4.9c0-.18,0-.5.05-.72.09-1.69.32-6.18,5-7.79a16.88,16.88,0,0,1,6.54-.57c.62,0,1.21.07,1.72.06s1.12,0,1.68,0a14.08,14.08,0,0,0,2.08,0,8.13,8.13,0,0,1,6.54,1.72c2.47,2.22,2.44,5.52,2.43,6.6-.07,7.85-.06,15.84,0,23.58s0,15.56-.06,23.35a85.23,85.23,0,0,1-7.47,34.34c-15.42,34.38-52.46,54.5-90.07,48.94-37-5.48-67.55-37.28-71-74-1-10.66-.87-21.38-.73-31.75.08-5.45.15-11.1.06-16.61,0-.76-.1-1.69-.2-2.68-.35-3.79-.75-8.09,2.11-11.14,3.18-3.39,7.65-2.91,10.92-2.56a18.52,18.52,0,0,0,3.16.18c2.14-.21,7.28,0,8.61,6.61.75,3.73,3,8,9.54,7.32,4.26-.45,7-4.12,7.06-9.34,0-8.28,0-17,0-25.91,0-5.2-3-9.1-7.29-9.5-5-.46-8.32,2.26-9.34,7.66C40.68,12,38,14.24,33.38,14.24h-.14c-2.64,0-5.36,0-8,0-4.77.05-9.71.11-14.64-.16-3.25-.18-5.82.61-7.64,2.35s-3,4.93-3,8.6c.13,10.69.11,21.53.09,32,0,8.74,0,17.79,0,26.67A110.93,110.93,0,0,0,2.48,107a101.21,101.21,0,0,0,33.73,56.14,97.42,97.42,0,0,0,47.06,22.22c6,1.05,8.6,4.21,8.56,10.26-.13,21.61-.14,43.81,0,67.86,0,10.86,1.18,19.4,3.57,26.89,10.16,31.88,30.71,51.82,62.8,60.94,2.87.81,5.83,1.38,9,2,1.32.25,2.63.51,3.94.78h17.46c1.35-.28,2.7-.54,4.06-.8,3.25-.64,6.32-1.24,9.37-2,37.8-9.57,65.53-44.74,65.95-83.62.18-16.88.1-34.15,0-50.4,0-4.66,2.09-7.7,6.47-9.27A43.87,43.87,0,0,0,303.63,162.13ZM261,193.81c-.62.05-1.24.08-1.87.08a27.7,27.7,0,0,1-26.69-24.65c-1.12-16.24,9.69-28.9,25.71-30.09a26.52,26.52,0,0,1,19.42,6.46,28.07,28.07,0,0,1,9.62,19.44C288.19,179.86,276.68,192.5,261,193.81Z"/></g></g></svg>