<svg width="352" height="352" viewBox="0 0 352 352" fill="none" xmlns="http://www.w3.org/2000/svg">
<circle cx="176" cy="176" r="176" fill="#00B0AA"/>
<g clip-path="url(#clip0_272_446)">
<path d="M315 175.331C315.193 251.989 252.263 314.976 175.518 315C98.7738 315.024 35.8314 251.989 36.0003 175.367C36.1692 98.7455 98.4481 36.3621 175.193 36.0001C251.744 35.6381 314.807 98.4801 315 175.331ZM175.651 300.388C200.347 300.352 224.478 292.993 244.993 279.241C265.507 265.49 281.484 245.963 290.903 223.131C300.322 200.298 302.76 175.185 297.908 150.967C293.057 126.749 281.134 104.513 263.648 87.072C246.161 69.6306 223.897 57.7665 199.669 52.9801C175.441 48.1937 150.337 50.6998 127.534 60.1816C104.73 69.6634 85.2489 85.695 71.5547 106.249C57.8605 126.804 50.5678 150.958 50.5988 175.657C50.6019 192.064 53.8411 208.31 60.1308 223.464C66.4206 238.617 75.6373 252.381 87.2533 263.967C98.8693 275.554 112.656 284.734 127.825 290.984C142.994 297.233 159.246 300.429 175.651 300.388Z" fill="white"/>
<path d="M175.084 204.822L205.729 229.208C196.355 229.799 189.393 230.487 182.914 224.381C175.386 217.322 166.759 211.434 157.397 204.073C157.397 212.001 157.12 218.553 157.482 224.997C157.747 229.522 155.406 230.161 152.028 229.558C148.916 229.015 143.957 231.971 144.102 224.924C144.403 210.662 144.102 196.387 144.271 182.113C144.271 178.686 143.136 177.527 139.915 177.539C126.258 177.539 112.6 177.648 98.8946 177.539C93.5016 177.539 91.149 180.025 91.1972 185.165C91.2576 190.631 94.5513 192.405 99.4858 192.405C104.915 192.405 110.344 192.405 115.761 192.405C127.826 192.574 132.99 197.642 133.123 209.503C133.304 225.081 128.598 229.775 112.769 229.787C102.719 229.787 92.6692 229.534 82.6071 229.896C77.9259 230.052 78.0465 227.603 78.0103 224.333C78.0103 220.858 78.3843 218.698 82.8363 218.867C91.8608 219.193 100.934 219.096 109.958 218.867C117.318 218.722 118.838 217.117 118.802 210.626C118.802 205.003 116.775 203.325 109.717 203.193C104.3 203.084 98.8584 203.337 93.4534 203.024C83.5481 202.469 77.2503 197.268 76.9124 189.751C76.1644 173.449 79.4219 168.357 91.8367 166.438C93.0334 166.242 94.2434 166.137 95.4561 166.125C137.852 166.269 180.248 166.547 222.644 166.474C228.17 166.474 229.461 168.429 229.219 173.425C228.881 180.194 229.135 186.987 229.135 195.277C238.582 186.372 247.232 178.77 255.207 170.505C260.214 165.316 266.065 166.885 271.543 167.379C275.066 167.693 271.748 170.058 270.915 170.879C264.002 177.6 256.908 184.152 249.959 190.812C241.067 199.368 242.31 196.592 250.055 204.387C257.125 211.506 264.533 218.251 271.772 225.19C272.737 226.131 274.438 226.988 273.92 228.52C273.22 230.595 271.169 229.341 269.721 229.558C263.013 230.535 258.115 227.784 253.433 222.957C246.062 215.356 237.954 208.478 228.99 200.212C228.99 209.105 228.556 216.864 229.123 224.538C229.642 231.416 225.045 229.111 221.727 229.582C217.42 230.173 215.695 228.773 215.755 224.092C216.008 210.432 215.586 196.761 215.96 183.066C216.093 178.07 213.945 177.696 209.928 177.491C205.102 177.238 204.643 179.639 205.041 183.367C205.162 185.171 205.162 186.981 205.041 188.785C204.872 197.654 201.301 202.131 192.434 203.543C187.318 204.448 181.985 204.387 175.084 204.822ZM157.856 197.509C166.18 194.637 174.638 196.303 182.963 195.784C190.672 195.313 192.361 193.371 192.144 185.141C191.963 178.686 190.841 177.793 182.854 177.732C180.441 177.732 178.028 177.704 175.615 177.648C156.649 177.334 156.649 177.334 157.421 196.484C157.421 196.628 157.578 196.797 157.856 197.509Z" fill="white"/>
<path d="M177.606 149.859L176.315 149.678C174.34 149.429 172.476 148.621 170.944 147.349C169.411 146.077 168.274 144.394 167.665 142.498C166.985 140.669 166.642 138.731 166.651 136.779V116.387C166.621 116.251 166.621 116.111 166.651 115.976C166.772 115.976 166.82 116.097 166.893 116.169L189.104 139.228C189.184 139.298 189.247 139.386 189.286 139.484C189.326 139.583 189.342 139.69 189.333 139.795C189.333 142.13 188.589 144.404 187.21 146.287C185.859 148.004 183.921 149.16 181.769 149.533C181.122 149.68 180.464 149.773 179.802 149.811C179.802 149.811 179.681 149.811 179.633 149.811L177.606 149.859Z" fill="white"/>
<path d="M166.711 112.393C166.614 112.272 166.711 112.151 166.711 112.031C166.711 105.286 166.711 98.5405 166.711 91.8074C166.685 88.9969 167.463 86.2376 168.955 83.8556C170.273 81.6726 172.389 80.0886 174.855 79.4393C177.365 78.7455 180.017 78.7455 182.528 79.4393C184.121 79.8366 185.57 80.6742 186.709 81.8564C187.848 83.0385 188.632 84.5175 188.971 86.1241C189.247 87.1917 189.381 88.2913 189.369 89.3941C189.374 89.4738 189.36 89.5536 189.329 89.627C189.297 89.7004 189.249 89.7653 189.188 89.8164L166.916 112.2L166.711 112.393Z" fill="white"/>
<path d="M165.095 114.504C165.095 118.132 165.095 121.752 165.095 125.364C165.095 125.654 165.01 125.714 164.745 125.714C161.668 125.714 158.592 125.823 155.527 125.714C151.876 125.703 148.377 124.25 145.791 121.672C144.435 120.204 143.589 118.338 143.378 116.351C143.158 114.767 143.259 113.155 143.673 111.611C144.088 110.067 144.808 108.622 145.791 107.361C147.215 105.444 149.278 104.1 151.606 103.572C152.793 103.296 154.008 103.163 155.226 103.174C158.423 103.174 161.62 103.174 164.878 103.174C165.215 103.174 165.264 103.283 165.264 103.584C165.151 107.236 165.095 110.876 165.095 114.504Z" fill="white"/>
<path d="M191.3 127.041V115.506C191.3 115.047 191.239 115.108 191.71 115.108C193.447 115.108 195.185 115.108 196.91 115.108C197.067 115.101 197.224 115.13 197.368 115.193C197.512 115.255 197.64 115.35 197.742 115.47C199.878 117.738 202.013 119.995 204.173 122.251C205.203 123.249 206.078 124.396 206.767 125.654C207.431 126.927 207.791 128.338 207.818 129.774C207.845 131.21 207.539 132.633 206.924 133.931C206.429 135.221 205.664 136.39 204.68 137.358C203.053 138.864 201.047 139.899 198.876 140.351C196.579 140.783 194.204 140.457 192.108 139.421C191.821 139.328 191.575 139.137 191.414 138.881C191.253 138.625 191.187 138.321 191.227 138.022C191.324 134.366 191.3 130.697 191.3 127.041Z" fill="white"/>
<path d="M191.299 101.497C191.299 97.6476 191.299 93.8105 191.299 89.9613C191.289 89.8525 191.313 89.7432 191.37 89.6497C191.427 89.5562 191.512 89.4835 191.613 89.4424C193.558 88.3292 195.802 87.8525 198.031 88.0789C200.114 88.3492 202.083 89.1837 203.726 90.4922C204.831 91.3385 205.753 92.3986 206.44 93.6093C207.126 94.82 207.561 96.1564 207.72 97.539C207.911 98.9352 207.778 100.357 207.333 101.694C206.887 103.031 206.14 104.247 205.15 105.249C203.328 107.277 201.422 109.219 199.552 111.21C198.924 111.874 198.285 112.513 197.67 113.177C197.616 113.244 197.548 113.297 197.471 113.333C197.393 113.369 197.308 113.386 197.223 113.382H191.637C191.372 113.382 191.323 113.298 191.323 113.056C191.315 109.195 191.307 105.342 191.299 101.497Z" fill="white"/>
<path d="M168.243 115.108H189.067C189.405 115.108 189.465 115.204 189.465 115.518V136.695C189.504 136.82 189.504 136.955 189.465 137.081L168.243 115.108Z" fill="white"/>
<path d="M189.393 92.0366C189.43 92.0886 189.455 92.1477 189.468 92.21C189.48 92.2723 189.479 92.3366 189.466 92.3986V112.996C189.466 113.298 189.466 113.382 189.092 113.382H168.123L189.393 92.0366Z" fill="white"/>
</g>
<defs>
<clipPath id="clip0_272_446">
<rect width="279" height="279" fill="white" transform="translate(36 36)"/>
</clipPath>
</defs>
</svg>
