<svg width="352" height="352" viewBox="0 0 352 352" fill="none" xmlns="http://www.w3.org/2000/svg">
<circle cx="176" cy="176" r="176" fill="#00B0AA"/>
<path d="M257.25 244.75C228.344 248.917 201.26 251 176 251C164.802 251 152.432 250.479 138.891 249.438C125.349 248.396 114.607 247.354 106.664 246.312L94.75 244.75C91.2344 244.099 88.1419 241.658 85.4727 237.426C82.8034 233.194 80.8503 228.083 79.6133 222.094C78.3763 216.104 77.4648 210.505 76.8789 205.297C76.293 200.089 76 195.336 76 191.039V160.961C76 127.758 82.25 109.854 94.75 107.25C123.656 103.083 150.74 101 176 101C187.198 101 199.568 101.521 213.109 102.562C226.651 103.604 237.393 104.646 245.336 105.688L257.25 107.25C261.026 107.771 264.249 110.147 266.918 114.379C269.587 118.611 271.508 123.786 272.68 129.906C273.852 136.026 274.698 141.625 275.219 146.703C275.74 151.781 276 156.534 276 160.961V191.039C276 195.727 275.805 200.479 275.414 205.297C275.023 210.115 274.242 215.648 273.07 221.898C271.898 228.148 269.945 233.357 267.211 237.523C264.477 241.69 261.156 244.099 257.25 244.75ZM211.352 171.117L160.18 139.867C158.747 138.565 156.859 138.207 154.516 138.793C152.172 139.379 151 140.323 151 141.625V210.375C151 211.807 152.172 212.784 154.516 213.305C156.859 213.826 158.747 213.435 160.18 212.133L211.352 180.883C212.784 179.581 213.5 177.953 213.5 176C213.5 174.047 212.784 172.419 211.352 171.117Z" fill="white"/>
</svg>
